<?xml version="1.0" encoding="utf-8"?>
<!-- Generator: Adobe Illustrator 16.0.0, SVG Export Plug-In . SVG Version: 6.00 Build 0)  -->
<!DOCTYPE svg PUBLIC "-//W3C//DTD SVG 1.1//EN" "http://www.w3.org/Graphics/SVG/1.1/DTD/svg11.dtd">
<svg version="1.1" id="Слой_1" xmlns="http://www.w3.org/2000/svg" xmlns:xlink="http://www.w3.org/1999/xlink" x="0px" y="0px"
	 width="595.28px" height="841.89px" viewBox="0 0 595.28 841.89" enable-background="new 0 0 595.28 841.89" xml:space="preserve">
<rect x="140.76" y="363.808" fill="#515DA4" width="24.23" height="11.485"/>
<rect x="157.34" y="377.875" fill="#515DA4" width="24.231" height="11.473"/>
<rect x="168.396" y="363.808" fill="#515DA4" width="24.23" height="11.485"/>
<rect x="183.691" y="377.875" fill="#515DA4" width="24.235" height="11.473"/>
<rect x="140.76" y="377.875" fill="#515DA4" width="14.029" height="11.473"/>
<rect x="210.894" y="377.875" fill="#515DA4" width="15.732" height="11.473"/>
<rect x="195.602" y="363.808" fill="#515DA4" width="24.231" height="11.485"/>
<rect x="221.531" y="363.808" fill="#515DA4" width="4.675" height="11.485"/>
<polygon fill="#515DA4" points="143.114,226.783 260.356,185.91 375.812,226.783 "/>
<rect x="142.884" y="230.539" fill="#515DA4" width="233.447" height="18.107"/>
<rect x="140.617" y="355.941" fill="#515DA4" width="240.247" height="6.216"/>
<rect x="295.493" y="363.808" fill="#515DA4" width="24.226" height="11.485"/>
<rect x="312.075" y="377.971" fill="#515DA4" width="24.227" height="11.473"/>
<rect x="323.124" y="363.808" fill="#515DA4" width="24.229" height="11.485"/>
<rect x="338.434" y="377.971" fill="#515DA4" width="24.229" height="11.473"/>
<rect x="295.493" y="377.971" fill="#515DA4" width="14.03" height="11.473"/>
<rect x="365.638" y="377.971" fill="#515DA4" width="15.727" height="11.473"/>
<rect x="350.336" y="363.808" fill="#515DA4" width="23.01" height="11.485"/>
<rect x="376.263" y="363.808" fill="#515DA4" width="4.685" height="11.485"/>
<rect x="140.76" y="392.154" fill="#515DA4" width="24.23" height="11.481"/>
<rect x="157.34" y="405.751" fill="#515DA4" width="24.231" height="11.484"/>
<rect x="168.396" y="392.154" fill="#515DA4" width="24.23" height="11.481"/>
<rect x="184.608" y="405.751" fill="#515DA4" width="23.318" height="11.484"/>
<rect x="140.76" y="405.751" fill="#515DA4" width="13.299" height="11.484"/>
<rect x="210.894" y="405.751" fill="#515DA4" width="15.732" height="11.484"/>
<rect x="195.602" y="392.154" fill="#515DA4" width="24.231" height="11.481"/>
<rect x="221.531" y="392.154" fill="#515DA4" width="4.675" height="11.481"/>
<rect x="295.493" y="392.154" fill="#515DA4" width="24.226" height="11.481"/>
<rect x="312.075" y="405.751" fill="#515DA4" width="24.227" height="11.484"/>
<rect x="323.124" y="392.154" fill="#515DA4" width="24.229" height="11.481"/>
<rect x="338.434" y="405.751" fill="#515DA4" width="24.229" height="11.484"/>
<rect x="295.493" y="405.751" fill="#515DA4" width="14.03" height="11.484"/>
<rect x="365.638" y="405.751" fill="#515DA4" width="15.727" height="11.484"/>
<rect x="350.336" y="392.154" fill="#515DA4" width="23.129" height="11.481"/>
<rect x="376.263" y="392.154" fill="#515DA4" width="4.685" height="11.481"/>
<polygon fill="#515DA4" points="260.718,190.194 182.514,219.728 337.737,219.728 "/>
<g>
	<defs>
		<rect id="SVGID_1_" x="16.669" y="14.51" width="578.611" height="827.38"/>
	</defs>
	<clipPath id="SVGID_2_">
		<use xlink:href="#SVGID_1_"  overflow="visible"/>
	</clipPath>
	<path clip-path="url(#SVGID_2_)" fill="#FFFFFF" d="M260.581,189.821l-78.215,29.538c-0.179,0.066-0.284,0.251-0.25,0.438
		c0.036,0.188,0.201,0.321,0.394,0.321h155.236c0.188,0,0.354-0.133,0.392-0.315c0.031-0.193-0.075-0.378-0.251-0.444
		l-77.022-29.538C260.771,189.788,260.671,189.788,260.581,189.821 M260.718,190.616c0.275,0.101,71.136,27.273,74.901,28.717
		H184.667C188.494,217.889,260.446,190.717,260.718,190.616"/>
	<rect x="164.711" y="337.888" clip-path="url(#SVGID_2_)" fill="#515DA4" width="3.2" height="14.583"/>
	<rect x="178.881" y="337.888" clip-path="url(#SVGID_2_)" fill="#515DA4" width="3.201" height="14.583"/>
	<rect x="171.788" y="337.888" clip-path="url(#SVGID_2_)" fill="#515DA4" width="3.207" height="14.583"/>
	<rect x="337.573" y="337.888" clip-path="url(#SVGID_2_)" fill="#515DA4" width="3.209" height="14.583"/>
	<rect x="351.749" y="337.888" clip-path="url(#SVGID_2_)" fill="#515DA4" width="3.204" height="14.583"/>
	<rect x="344.659" y="337.888" clip-path="url(#SVGID_2_)" fill="#515DA4" width="3.204" height="14.583"/>
	<rect x="294.785" y="337.888" clip-path="url(#SVGID_2_)" fill="#515DA4" width="3.206" height="14.583"/>
	<rect x="308.956" y="337.888" clip-path="url(#SVGID_2_)" fill="#515DA4" width="3.203" height="14.583"/>
	<rect x="301.873" y="337.888" clip-path="url(#SVGID_2_)" fill="#515DA4" width="3.206" height="14.583"/>
	<rect x="251.144" y="337.888" clip-path="url(#SVGID_2_)" fill="#515DA4" width="3.206" height="14.583"/>
	<rect x="265.316" y="337.888" clip-path="url(#SVGID_2_)" fill="#515DA4" width="3.205" height="14.583"/>
	<rect x="258.229" y="337.888" clip-path="url(#SVGID_2_)" fill="#515DA4" width="3.204" height="14.583"/>
	<rect x="208.636" y="337.888" clip-path="url(#SVGID_2_)" fill="#515DA4" width="3.199" height="14.583"/>
	<rect x="222.807" y="337.888" clip-path="url(#SVGID_2_)" fill="#515DA4" width="3.2" height="14.583"/>
	<rect x="215.723" y="337.888" clip-path="url(#SVGID_2_)" fill="#515DA4" width="3.2" height="14.583"/>
	<rect x="159.892" y="337.601" clip-path="url(#SVGID_2_)" fill="#515DA4" width="199.861" height="2.271"/>
	<rect x="166.41" y="300.096" clip-path="url(#SVGID_2_)" fill="#515DA4" width="16.148" height="32.692"/>
	<rect x="337.723" y="300.096" clip-path="url(#SVGID_2_)" fill="#515DA4" width="16.157" height="32.692"/>
	<rect x="295.211" y="300.096" clip-path="url(#SVGID_2_)" fill="#515DA4" width="16.154" height="32.692"/>
	<rect x="252.277" y="300.096" clip-path="url(#SVGID_2_)" fill="#515DA4" width="16.153" height="32.692"/>
	<rect x="209.346" y="300.096" clip-path="url(#SVGID_2_)" fill="#515DA4" width="16.153" height="32.692"/>
	<rect x="166.41" y="251.588" clip-path="url(#SVGID_2_)" fill="#515DA4" width="16.148" height="14.978"/>
	<rect x="337.723" y="251.588" clip-path="url(#SVGID_2_)" fill="#515DA4" width="16.157" height="14.978"/>
	<rect x="295.211" y="251.588" clip-path="url(#SVGID_2_)" fill="#515DA4" width="16.154" height="14.978"/>
	<rect x="252.277" y="251.588" clip-path="url(#SVGID_2_)" fill="#515DA4" width="16.153" height="14.978"/>
	<rect x="209.346" y="251.588" clip-path="url(#SVGID_2_)" fill="#515DA4" width="16.153" height="14.978"/>
	<rect x="165.982" y="312.377" clip-path="url(#SVGID_2_)" fill="#FFFFFF" width="189.66" height="2.554"/>
	<polygon clip-path="url(#SVGID_2_)" fill="#515DA4" points="159.129,250.756 145.244,250.756 147.094,257.197 157.466,257.197 	"/>
	<rect x="147.015" y="258.45" clip-path="url(#SVGID_2_)" fill="#515DA4" width="10.366" height="75.524"/>
	<rect x="145.655" y="334.739" clip-path="url(#SVGID_2_)" fill="#515DA4" width="13.082" height="3.31"/>
	<rect x="143.008" y="339.034" clip-path="url(#SVGID_2_)" fill="#515DA4" width="18.383" height="13.437"/>
	<polygon clip-path="url(#SVGID_2_)" fill="#515DA4" points="375.272,250.756 361.391,250.756 363.243,257.197 373.614,257.197 	"/>
	<rect x="363.157" y="258.45" clip-path="url(#SVGID_2_)" fill="#515DA4" width="10.369" height="75.524"/>
	<rect x="361.802" y="334.739" clip-path="url(#SVGID_2_)" fill="#515DA4" width="13.085" height="3.31"/>
	<rect x="359.147" y="339.034" clip-path="url(#SVGID_2_)" fill="#515DA4" width="18.393" height="13.437"/>
	<polygon clip-path="url(#SVGID_2_)" fill="#515DA4" points="332.045,250.756 318.157,250.756 320.01,257.197 330.378,257.197 	"/>
	<rect x="319.93" y="258.45" clip-path="url(#SVGID_2_)" fill="#515DA4" width="10.367" height="75.524"/>
	<rect x="318.575" y="334.739" clip-path="url(#SVGID_2_)" fill="#515DA4" width="13.089" height="3.31"/>
	<rect x="315.917" y="339.034" clip-path="url(#SVGID_2_)" fill="#515DA4" width="18.396" height="13.437"/>
	<polygon clip-path="url(#SVGID_2_)" fill="#515DA4" points="288.82,250.756 274.931,250.756 276.787,257.197 287.157,257.197 	"/>
	<rect x="276.703" y="258.45" clip-path="url(#SVGID_2_)" fill="#515DA4" width="10.369" height="75.524"/>
	<rect x="275.348" y="334.739" clip-path="url(#SVGID_2_)" fill="#515DA4" width="13.082" height="3.31"/>
	<rect x="272.696" y="339.034" clip-path="url(#SVGID_2_)" fill="#515DA4" width="18.39" height="13.437"/>
	<polygon clip-path="url(#SVGID_2_)" fill="#515DA4" points="245.594,250.756 231.706,250.756 233.559,257.197 243.921,257.197 	"/>
	<rect x="233.474" y="258.45" clip-path="url(#SVGID_2_)" fill="#515DA4" width="10.372" height="75.524"/>
	<rect x="232.12" y="334.739" clip-path="url(#SVGID_2_)" fill="#515DA4" width="13.08" height="3.31"/>
	<rect x="229.464" y="339.034" clip-path="url(#SVGID_2_)" fill="#515DA4" width="18.389" height="13.437"/>
	<polygon clip-path="url(#SVGID_2_)" fill="#515DA4" points="202.367,250.756 188.476,250.756 190.326,257.197 200.692,257.197 	"/>
	<rect x="190.244" y="258.45" clip-path="url(#SVGID_2_)" fill="#515DA4" width="10.363" height="75.524"/>
	<rect x="188.883" y="334.739" clip-path="url(#SVGID_2_)" fill="#515DA4" width="13.088" height="3.31"/>
	<rect x="186.231" y="339.034" clip-path="url(#SVGID_2_)" fill="#515DA4" width="18.395" height="13.437"/>
	<rect x="344.95" y="271.798" clip-path="url(#SVGID_2_)" fill="#FFFFFF" width="1.696" height="62.257"/>
	<rect x="302.439" y="271.798" clip-path="url(#SVGID_2_)" fill="#FFFFFF" width="1.703" height="62.257"/>
	<rect x="259.29" y="274.564" clip-path="url(#SVGID_2_)" fill="#FFFFFF" width="1.702" height="59.491"/>
	<rect x="216.574" y="272.726" clip-path="url(#SVGID_2_)" fill="#FFFFFF" width="1.695" height="61.329"/>
	<rect x="173.641" y="271.299" clip-path="url(#SVGID_2_)" fill="#FFFFFF" width="1.696" height="62.756"/>
</g>
<g>
	<defs>
		<rect id="SVGID_3_" x="208.496" y="363.809" width="19.551" height="73.247"/>
	</defs>
	<clipPath id="SVGID_4_">
		<use xlink:href="#SVGID_3_"  overflow="visible"/>
	</clipPath>
	<rect x="208.495" y="363.809" clip-path="url(#SVGID_4_)" fill="#FFFFFF" width="19.551" height="73.247"/>
</g>
<g>
	<defs>
		<rect id="SVGID_5_" x="16.669" y="14.51" width="578.611" height="827.38"/>
	</defs>
	<clipPath id="SVGID_6_">
		<use xlink:href="#SVGID_5_"  overflow="visible"/>
	</clipPath>
	<path clip-path="url(#SVGID_6_)" fill="#515DA4" d="M208.1,437.443h20.336v-74.021H208.1V437.443z M227.649,436.656h-18.761
		v-72.452h18.761V436.656z"/>
</g>
<g>
	<defs>
		<rect id="SVGID_7_" x="295.21" y="363.809" width="19.557" height="73.247"/>
	</defs>
	<clipPath id="SVGID_8_">
		<use xlink:href="#SVGID_7_"  overflow="visible"/>
	</clipPath>
	<rect x="295.212" y="363.809" clip-path="url(#SVGID_8_)" fill="#FFFFFF" width="19.555" height="73.247"/>
</g>
<g>
	<defs>
		<rect id="SVGID_9_" x="16.669" y="14.51" width="578.611" height="827.38"/>
	</defs>
	<clipPath id="SVGID_10_">
		<use xlink:href="#SVGID_9_"  overflow="visible"/>
	</clipPath>
	<path clip-path="url(#SVGID_10_)" fill="#515DA4" d="M294.821,437.443h20.337v-74.021h-20.337V437.443z M314.368,436.656h-18.762
		v-72.452h18.762V436.656z"/>
</g>
<g>
	<defs>
		<rect id="SVGID_11_" x="231.874" y="364.312" width="58.949" height="64.372"/>
	</defs>
	<clipPath id="SVGID_12_">
		<use xlink:href="#SVGID_11_"  overflow="visible"/>
	</clipPath>
	<rect x="231.877" y="364.312" clip-path="url(#SVGID_12_)" fill="#FFFFFF" width="58.949" height="64.372"/>
</g>
<g>
	<defs>
		<rect id="SVGID_13_" x="16.669" y="14.51" width="578.611" height="827.38"/>
	</defs>
	<clipPath id="SVGID_14_">
		<use xlink:href="#SVGID_13_"  overflow="visible"/>
	</clipPath>
	<path clip-path="url(#SVGID_14_)" fill="#515DA4" d="M231.478,429.081h59.732v-65.168h-59.732V429.081z M290.428,428.291H232.27
		V364.7h58.158V428.291z"/>
	<rect x="232.016" y="389.341" clip-path="url(#SVGID_14_)" fill="#515DA4" width="8.645" height="2.918"/>
	<rect x="282.371" y="389.341" clip-path="url(#SVGID_14_)" fill="#515DA4" width="8.648" height="2.918"/>
</g>
<g>
	<defs>
		<rect id="SVGID_15_" x="240.229" y="371.972" width="42.09" height="56.724"/>
	</defs>
	<clipPath id="SVGID_16_">
		<use xlink:href="#SVGID_15_"  overflow="visible"/>
	</clipPath>
	<path clip-path="url(#SVGID_16_)" fill="#FFFFFF" d="M282.319,428.696H240.23v-46.367c0,0,4.634-10.353,20.392-10.353
		c15.759,0,21.697,10.353,21.697,10.353V428.696z"/>
</g>
<g>
	<defs>
		<rect id="SVGID_17_" x="16.669" y="14.51" width="578.611" height="827.38"/>
	</defs>
	<clipPath id="SVGID_18_">
		<use xlink:href="#SVGID_17_"  overflow="visible"/>
	</clipPath>
	<path clip-path="url(#SVGID_18_)" fill="#515DA4" d="M239.863,382.163l-0.029,0.082v46.846h42.874V382.22l-0.049-0.092
		c-0.054-0.103-6.232-10.544-22.038-10.544C244.789,371.584,239.916,382.06,239.863,382.163 M260.621,372.369
		c14.711,0,20.787,9.229,21.305,10.065v45.869H240.62v-45.888C240.973,381.696,245.833,372.369,260.621,372.369"/>
	<path clip-path="url(#SVGID_18_)" fill="#515DA4" d="M275.04,428.624h-26.975V390.04c0,0,2.976-8.614,13.069-8.614
		c10.102,0,13.906,8.614,13.906,8.614V428.624z"/>
</g>
<g>
	<defs>
		<rect id="SVGID_19_" x="141.187" y="416.778" width="67.308" height="19.964"/>
	</defs>
	<clipPath id="SVGID_20_">
		<use xlink:href="#SVGID_19_"  overflow="visible"/>
	</clipPath>
	<rect x="141.188" y="416.779" clip-path="url(#SVGID_20_)" fill="#FFFFFF" width="67.308" height="19.963"/>
</g>
<g>
	<defs>
		<rect id="SVGID_21_" x="16.669" y="14.51" width="578.611" height="827.38"/>
	</defs>
	<clipPath id="SVGID_22_">
		<use xlink:href="#SVGID_21_"  overflow="visible"/>
	</clipPath>
	<path clip-path="url(#SVGID_22_)" fill="#515DA4" d="M140.792,437.13h68.095v-20.75h-68.095V437.13z M208.1,436.343h-66.521
		v-19.168H208.1V436.343z"/>
</g>
<g>
	<defs>
		<rect id="SVGID_23_" x="314.767" y="416.778" width="66.733" height="19.964"/>
	</defs>
	<clipPath id="SVGID_24_">
		<use xlink:href="#SVGID_23_"  overflow="visible"/>
	</clipPath>
	<rect x="314.767" y="416.779" clip-path="url(#SVGID_24_)" fill="#FFFFFF" width="66.733" height="19.963"/>
</g>
<g>
	<defs>
		<rect id="SVGID_25_" x="16.669" y="14.51" width="578.611" height="827.38"/>
	</defs>
	<clipPath id="SVGID_26_">
		<use xlink:href="#SVGID_25_"  overflow="visible"/>
	</clipPath>
	<path clip-path="url(#SVGID_26_)" fill="#515DA4" d="M314.368,437.13h66.98v-20.75h-66.98V437.13z M380.57,436.343h-65.418v-19.168
		h65.418V436.343z"/>
	<rect x="81.647" y="270.774" clip-path="url(#SVGID_26_)" fill="#515DA4" width="320.616" height="2.046"/>
	<rect x="152.196" y="295.022" clip-path="url(#SVGID_26_)" fill="#515DA4" width="212.597" height="2.038"/>
</g>
<g>
	<defs>
		<rect id="SVGID_27_" x="337.745" y="274.861" width="16.502" height="16.495"/>
	</defs>
	<clipPath id="SVGID_28_">
		<use xlink:href="#SVGID_27_"  overflow="visible"/>
	</clipPath>
	<path clip-path="url(#SVGID_28_)" fill="#FFFFFF" d="M354.247,283.106c0,4.558-3.693,8.253-8.245,8.253
		c-4.56,0-8.257-3.695-8.257-8.253c0-4.561,3.697-8.249,8.257-8.249C350.554,274.857,354.247,278.545,354.247,283.106"/>
</g>
<g>
	<defs>
		<rect id="SVGID_29_" x="16.669" y="14.51" width="578.611" height="827.38"/>
	</defs>
	<clipPath id="SVGID_30_">
		<use xlink:href="#SVGID_29_"  overflow="visible"/>
	</clipPath>
	<path clip-path="url(#SVGID_30_)" fill="#515DA4" d="M337.352,283.106c0,4.77,3.878,8.642,8.647,8.642
		c4.762,0,8.639-3.872,8.639-8.642c0-4.764-3.877-8.642-8.639-8.642C341.229,274.464,337.352,278.342,337.352,283.106
		 M338.143,283.106c0-4.333,3.525-7.852,7.856-7.852c4.333,0,7.854,3.519,7.854,7.852s-3.521,7.851-7.854,7.851
		C341.668,290.957,338.143,287.439,338.143,283.106"/>
	<path clip-path="url(#SVGID_30_)" fill="#515DA4" d="M348.329,283.171c0,1.396-1.13,2.518-2.518,2.518
		c-1.396,0-2.522-1.122-2.522-2.518c0-1.392,1.127-2.519,2.522-2.519C347.199,280.652,348.329,281.779,348.329,283.171"/>
	<path clip-path="url(#SVGID_30_)" fill="#515DA4" d="M345.984,280.911c0,0-1.043-1.476-1.218-2.692
		c-0.179-1.219,1.56-2.003,1.56-2.003s1.221,0.784,1.393,1.918C347.896,279.265,345.984,280.911,345.984,280.911"/>
	<path clip-path="url(#SVGID_30_)" fill="#515DA4" d="M343.808,283.517c0,0-1.479,1.044-2.696,1.218
		c-1.21,0.171-1.99-1.57-1.99-1.57s0.78-1.213,1.904-1.383C342.161,281.604,343.808,283.517,343.808,283.517"/>
	<path clip-path="url(#SVGID_30_)" fill="#515DA4" d="M348.188,283.392c0,0,1.301-1.253,2.476-1.608
		c1.184-0.353,2.212,1.251,2.212,1.251s-0.587,1.317-1.682,1.663C350.104,285.038,348.188,283.392,348.188,283.392"/>
	<path clip-path="url(#SVGID_30_)" fill="#515DA4" d="M344.516,281.713c0,0-1.804-0.02-2.896-0.59
		c-1.086-0.572-0.707-2.441-0.707-2.441s1.347-0.528,2.369-0.006C344.291,279.196,344.516,281.713,344.516,281.713"/>
	<path clip-path="url(#SVGID_30_)" fill="#515DA4" d="M347.437,281.614c0,0,0.538-1.73,1.4-2.609c0.855-0.876,2.534,0.02,2.534,0.02
		s0.12,1.443-0.67,2.274C349.915,282.127,347.437,281.614,347.437,281.614"/>
	<path clip-path="url(#SVGID_30_)" fill="#515DA4" d="M345.882,285.289c0,0,1.129,1.411,1.377,2.618
		c0.252,1.2-1.44,2.089-1.44,2.089s-1.264-0.708-1.503-1.824C344.073,287.057,345.882,285.289,345.882,285.289"/>
	<path clip-path="url(#SVGID_30_)" fill="#515DA4" d="M344.319,284.733c0,0-0.172,1.8-0.833,2.833
		c-0.656,1.037-2.489,0.506-2.489,0.506s-0.412-1.39,0.194-2.36C341.792,284.741,344.319,284.733,344.319,284.733"/>
	<path clip-path="url(#SVGID_30_)" fill="#515DA4" d="M347.171,284.867c0,0,1.803-0.05,2.91,0.48
		c1.119,0.531,0.805,2.408,0.805,2.408s-1.327,0.583-2.36,0.103C347.489,287.376,347.171,284.867,347.171,284.867"/>
</g>
<g>
	<defs>
		<rect id="SVGID_31_" x="294.666" y="274.861" width="16.501" height="16.495"/>
	</defs>
	<clipPath id="SVGID_32_">
		<use xlink:href="#SVGID_31_"  overflow="visible"/>
	</clipPath>
	<path clip-path="url(#SVGID_32_)" fill="#FFFFFF" d="M311.164,283.106c0,4.558-3.694,8.253-8.243,8.253
		c-4.565,0-8.255-3.695-8.255-8.253c0-4.561,3.689-8.249,8.255-8.249C307.47,274.857,311.164,278.545,311.164,283.106"/>
</g>
<g>
	<defs>
		<rect id="SVGID_33_" x="16.669" y="14.51" width="578.611" height="827.38"/>
	</defs>
	<clipPath id="SVGID_34_">
		<use xlink:href="#SVGID_33_"  overflow="visible"/>
	</clipPath>
	<path clip-path="url(#SVGID_34_)" fill="#515DA4" d="M294.271,283.106c0,4.77,3.878,8.642,8.65,8.642
		c4.763,0,8.635-3.872,8.635-8.642c0-4.764-3.872-8.642-8.635-8.642C298.149,274.464,294.271,278.342,294.271,283.106
		 M295.063,283.106c0-4.333,3.524-7.852,7.858-7.852c4.324,0,7.85,3.519,7.85,7.852s-3.525,7.851-7.85,7.851
		C298.587,290.957,295.063,287.439,295.063,283.106"/>
	<path clip-path="url(#SVGID_34_)" fill="#515DA4" d="M305.245,283.171c0,1.396-1.132,2.518-2.517,2.518
		c-1.391,0-2.521-1.122-2.521-2.518c0-1.392,1.131-2.519,2.521-2.519C304.113,280.652,305.245,281.779,305.245,283.171"/>
	<path clip-path="url(#SVGID_34_)" fill="#515DA4" d="M302.901,280.911c0,0-1.039-1.476-1.221-2.692
		c-0.173-1.219,1.566-2.003,1.566-2.003s1.219,0.784,1.389,1.918C304.813,279.265,302.901,280.911,302.901,280.911"/>
	<path clip-path="url(#SVGID_34_)" fill="#515DA4" d="M300.725,283.517c0,0-1.475,1.044-2.691,1.218c-1.217,0.171-2-1.57-2-1.57
		s0.783-1.213,1.916-1.383C299.08,281.604,300.725,283.517,300.725,283.517"/>
	<path clip-path="url(#SVGID_34_)" fill="#515DA4" d="M305.103,283.392c0,0,1.307-1.253,2.479-1.608
		c1.18-0.353,2.214,1.251,2.214,1.251s-0.593,1.317-1.688,1.663C307.02,285.038,305.103,283.392,305.103,283.392"/>
	<path clip-path="url(#SVGID_34_)" fill="#515DA4" d="M301.436,281.713c0,0-1.811-0.02-2.899-0.59
		c-1.09-0.572-0.705-2.441-0.705-2.441s1.349-0.528,2.363-0.006C301.213,279.196,301.436,281.713,301.436,281.713"/>
	<path clip-path="url(#SVGID_34_)" fill="#515DA4" d="M304.357,281.614c0,0,0.536-1.73,1.395-2.609
		c0.858-0.876,2.543,0.02,2.543,0.02s0.115,1.443-0.677,2.274C306.826,282.127,304.357,281.614,304.357,281.614"/>
	<path clip-path="url(#SVGID_34_)" fill="#515DA4" d="M302.8,285.289c0,0,1.131,1.411,1.379,2.618c0.247,1.2-1.44,2.089-1.44,2.089
		s-1.262-0.708-1.5-1.824C300.991,287.057,302.8,285.289,302.8,285.289"/>
	<path clip-path="url(#SVGID_34_)" fill="#515DA4" d="M301.235,284.733c0,0-0.173,1.8-0.829,2.833
		c-0.663,1.037-2.487,0.506-2.487,0.506s-0.416-1.39,0.186-2.36C298.709,284.741,301.235,284.733,301.235,284.733"/>
	<path clip-path="url(#SVGID_34_)" fill="#515DA4" d="M304.083,284.867c0,0,1.81-0.05,2.92,0.48c1.11,0.531,0.802,2.408,0.802,2.408
		s-1.328,0.583-2.365,0.103C304.401,287.376,304.083,284.867,304.083,284.867"/>
</g>
<g>
	<defs>
		<rect id="SVGID_35_" x="250.844" y="274.861" width="16.492" height="16.495"/>
	</defs>
	<clipPath id="SVGID_36_">
		<use xlink:href="#SVGID_35_"  overflow="visible"/>
	</clipPath>
	<path clip-path="url(#SVGID_36_)" fill="#FFFFFF" d="M267.337,283.106c0,4.558-3.691,8.253-8.242,8.253
		c-4.56,0-8.25-3.695-8.25-8.253c0-4.561,3.69-8.249,8.25-8.249C263.646,274.857,267.337,278.545,267.337,283.106"/>
</g>
<g>
	<defs>
		<rect id="SVGID_37_" x="16.669" y="14.51" width="578.611" height="827.38"/>
	</defs>
	<clipPath id="SVGID_38_">
		<use xlink:href="#SVGID_37_"  overflow="visible"/>
	</clipPath>
	<path clip-path="url(#SVGID_38_)" fill="#515DA4" d="M250.447,283.106c0,4.77,3.882,8.642,8.648,8.642
		c4.764,0,8.64-3.872,8.64-8.642c0-4.764-3.876-8.642-8.64-8.642C254.329,274.464,250.447,278.342,250.447,283.106 M251.239,283.106
		c0-4.333,3.527-7.852,7.856-7.852c4.324,0,7.852,3.519,7.852,7.852s-3.528,7.851-7.852,7.851
		C254.766,290.957,251.239,287.439,251.239,283.106"/>
	<path clip-path="url(#SVGID_38_)" fill="#515DA4" d="M261.422,283.171c0,1.396-1.125,2.518-2.523,2.518
		c-1.385,0-2.515-1.122-2.515-2.518c0-1.392,1.13-2.519,2.515-2.519C260.297,280.652,261.422,281.779,261.422,283.171"/>
	<path clip-path="url(#SVGID_38_)" fill="#515DA4" d="M259.075,280.911c0,0-1.042-1.476-1.213-2.692
		c-0.176-1.219,1.563-2.003,1.563-2.003s1.219,0.784,1.385,1.918C260.986,279.265,259.075,280.911,259.075,280.911"/>
	<path clip-path="url(#SVGID_38_)" fill="#515DA4" d="M256.903,283.517c0,0-1.476,1.044-2.694,1.218
		c-1.216,0.171-1.997-1.57-1.997-1.57s0.781-1.213,1.911-1.383C255.255,281.604,256.903,283.517,256.903,283.517"/>
	<path clip-path="url(#SVGID_38_)" fill="#515DA4" d="M261.28,283.392c0,0,1.304-1.253,2.482-1.608
		c1.178-0.353,2.208,1.251,2.208,1.251s-0.589,1.317-1.678,1.663C263.2,285.038,261.28,283.392,261.28,283.392"/>
	<path clip-path="url(#SVGID_38_)" fill="#515DA4" d="M257.612,281.713c0,0-1.81-0.02-2.898-0.59
		c-1.088-0.572-0.706-2.441-0.706-2.441s1.349-0.528,2.366-0.006C257.389,279.196,257.612,281.713,257.612,281.713"/>
	<path clip-path="url(#SVGID_38_)" fill="#515DA4" d="M260.533,281.614c0,0,0.535-1.73,1.396-2.609
		c0.855-0.876,2.537,0.02,2.537,0.02s0.121,1.443-0.668,2.274C263.004,282.127,260.533,281.614,260.533,281.614"/>
	<path clip-path="url(#SVGID_38_)" fill="#515DA4" d="M258.978,285.289c0,0,1.125,1.411,1.375,2.618
		c0.25,1.2-1.442,2.089-1.442,2.089s-1.261-0.708-1.499-1.824C257.168,287.057,258.978,285.289,258.978,285.289"/>
	<path clip-path="url(#SVGID_38_)" fill="#515DA4" d="M257.416,284.733c0,0-0.175,1.8-0.833,2.833
		c-0.663,1.037-2.493,0.506-2.493,0.506s-0.409-1.39,0.191-2.36C254.89,284.741,257.416,284.733,257.416,284.733"/>
	<path clip-path="url(#SVGID_38_)" fill="#515DA4" d="M260.263,284.867c0,0,1.806-0.05,2.92,0.48
		c1.107,0.531,0.797,2.408,0.797,2.408s-1.322,0.583-2.363,0.103C260.581,287.376,260.263,284.867,260.263,284.867"/>
</g>
<g>
	<defs>
		<rect id="SVGID_39_" x="207.992" y="274.861" width="16.494" height="16.495"/>
	</defs>
	<clipPath id="SVGID_40_">
		<use xlink:href="#SVGID_39_"  overflow="visible"/>
	</clipPath>
	<path clip-path="url(#SVGID_40_)" fill="#FFFFFF" d="M224.486,283.106c0,4.558-3.688,8.253-8.247,8.253
		c-4.556,0-8.249-3.695-8.249-8.253c0-4.561,3.693-8.249,8.249-8.249C220.798,274.857,224.486,278.545,224.486,283.106"/>
</g>
<g>
	<defs>
		<rect id="SVGID_41_" x="16.669" y="14.51" width="578.611" height="827.38"/>
	</defs>
	<clipPath id="SVGID_42_">
		<use xlink:href="#SVGID_41_"  overflow="visible"/>
	</clipPath>
	<path clip-path="url(#SVGID_42_)" fill="#515DA4" d="M207.596,283.106c0,4.77,3.876,8.642,8.643,8.642
		c4.763,0,8.644-3.872,8.644-8.642c0-4.764-3.881-8.642-8.644-8.642C211.472,274.464,207.596,278.342,207.596,283.106
		 M208.383,283.106c0-4.333,3.524-7.852,7.856-7.852c4.331,0,7.852,3.519,7.852,7.852s-3.521,7.851-7.852,7.851
		C211.907,290.957,208.383,287.439,208.383,283.106"/>
	<path clip-path="url(#SVGID_42_)" fill="#515DA4" d="M218.572,283.171c0,1.396-1.131,2.518-2.522,2.518
		c-1.395,0-2.52-1.122-2.52-2.518c0-1.392,1.125-2.519,2.52-2.519C217.441,280.652,218.572,281.779,218.572,283.171"/>
	<path clip-path="url(#SVGID_42_)" fill="#515DA4" d="M216.225,280.911c0,0-1.043-1.476-1.219-2.692
		c-0.176-1.219,1.566-2.003,1.566-2.003s1.218,0.784,1.388,1.918C218.136,279.265,216.225,280.911,216.225,280.911"/>
	<path clip-path="url(#SVGID_42_)" fill="#515DA4" d="M214.05,283.517c0,0-1.473,1.044-2.692,1.218
		c-1.218,0.171-1.999-1.57-1.999-1.57s0.781-1.213,1.912-1.383C212.402,281.604,214.05,283.517,214.05,283.517"/>
	<path clip-path="url(#SVGID_42_)" fill="#515DA4" d="M218.428,283.392c0,0,1.303-1.253,2.484-1.608
		c1.175-0.353,2.206,1.251,2.206,1.251s-0.59,1.317-1.687,1.663C220.344,285.038,218.428,283.392,218.428,283.392"/>
	<path clip-path="url(#SVGID_42_)" fill="#515DA4" d="M214.759,281.713c0,0-1.809-0.02-2.896-0.59
		c-1.09-0.572-0.704-2.441-0.704-2.441s1.347-0.528,2.361-0.006C214.537,279.196,214.759,281.713,214.759,281.713"/>
	<path clip-path="url(#SVGID_42_)" fill="#515DA4" d="M217.678,281.614c0,0,0.538-1.73,1.397-2.609c0.857-0.876,2.54,0.02,2.54,0.02
		s0.123,1.443-0.674,2.274C220.154,282.127,217.678,281.614,217.678,281.614"/>
	<path clip-path="url(#SVGID_42_)" fill="#515DA4" d="M216.121,285.289c0,0,1.13,1.411,1.379,2.618
		c0.252,1.2-1.441,2.089-1.441,2.089s-1.259-0.708-1.499-1.824C214.312,287.057,216.121,285.289,216.121,285.289"/>
	<path clip-path="url(#SVGID_42_)" fill="#515DA4" d="M214.56,284.733c0,0-0.17,1.8-0.833,2.833
		c-0.658,1.037-2.487,0.506-2.487,0.506s-0.41-1.39,0.189-2.36C212.038,284.741,214.56,284.733,214.56,284.733"/>
	<path clip-path="url(#SVGID_42_)" fill="#515DA4" d="M217.411,284.867c0,0,1.809-0.05,2.918,0.48
		c1.109,0.531,0.802,2.408,0.802,2.408s-1.326,0.583-2.365,0.103C217.729,287.376,217.411,284.867,217.411,284.867"/>
</g>
<g>
	<defs>
		<rect id="SVGID_43_" x="166.903" y="274.861" width="16.496" height="16.495"/>
	</defs>
	<clipPath id="SVGID_44_">
		<use xlink:href="#SVGID_43_"  overflow="visible"/>
	</clipPath>
	<path clip-path="url(#SVGID_44_)" fill="#FFFFFF" d="M183.399,283.106c0,4.558-3.691,8.253-8.245,8.253
		c-4.555,0-8.253-3.695-8.253-8.253c0-4.561,3.698-8.249,8.253-8.249C179.708,274.857,183.399,278.545,183.399,283.106"/>
</g>
<g>
	<defs>
		<rect id="SVGID_45_" x="16.669" y="14.51" width="578.611" height="827.38"/>
	</defs>
	<clipPath id="SVGID_46_">
		<use xlink:href="#SVGID_45_"  overflow="visible"/>
	</clipPath>
	<path clip-path="url(#SVGID_46_)" fill="#515DA4" d="M166.509,283.106c0,4.77,3.877,8.642,8.645,8.642
		c4.763,0,8.641-3.872,8.641-8.642c0-4.764-3.878-8.642-8.641-8.642C170.386,274.464,166.509,278.342,166.509,283.106
		 M167.298,283.106c0-4.333,3.525-7.852,7.856-7.852c4.328,0,7.852,3.519,7.852,7.852s-3.524,7.851-7.852,7.851
		C170.823,290.957,167.298,287.439,167.298,283.106"/>
	<path clip-path="url(#SVGID_46_)" fill="#515DA4" d="M177.482,283.171c0,1.396-1.125,2.518-2.516,2.518
		c-1.393,0-2.518-1.122-2.518-2.518c0-1.392,1.125-2.519,2.518-2.519C176.357,280.652,177.482,281.779,177.482,283.171"/>
	<path clip-path="url(#SVGID_46_)" fill="#515DA4" d="M175.14,280.911c0,0-1.043-1.476-1.218-2.692
		c-0.177-1.219,1.565-2.003,1.565-2.003s1.214,0.784,1.39,1.918C177.052,279.265,175.14,280.911,175.14,280.911"/>
	<path clip-path="url(#SVGID_46_)" fill="#515DA4" d="M172.965,283.517c0,0-1.479,1.044-2.695,1.218
		c-1.212,0.171-1.999-1.57-1.999-1.57s0.787-1.213,1.912-1.383C171.317,281.604,172.965,283.517,172.965,283.517"/>
	<path clip-path="url(#SVGID_46_)" fill="#515DA4" d="M177.342,283.392c0,0,1.303-1.253,2.48-1.608
		c1.178-0.353,2.212,1.251,2.212,1.251s-0.593,1.317-1.686,1.663C179.259,285.038,177.342,283.392,177.342,283.392"/>
	<path clip-path="url(#SVGID_46_)" fill="#515DA4" d="M173.67,281.713c0,0-1.807-0.02-2.894-0.59
		c-1.09-0.572-0.706-2.441-0.706-2.441s1.346-0.528,2.363-0.006C173.451,279.196,173.67,281.713,173.67,281.713"/>
	<path clip-path="url(#SVGID_46_)" fill="#515DA4" d="M176.595,281.614c0,0,0.534-1.73,1.393-2.609
		c0.86-0.876,2.543,0.02,2.543,0.02s0.116,1.443-0.672,2.274C179.07,282.127,176.595,281.614,176.595,281.614"/>
	<path clip-path="url(#SVGID_46_)" fill="#515DA4" d="M175.038,285.289c0,0,1.131,1.411,1.376,2.618
		c0.249,1.2-1.438,2.089-1.438,2.089s-1.262-0.708-1.508-1.824C173.229,287.057,175.038,285.289,175.038,285.289"/>
	<path clip-path="url(#SVGID_46_)" fill="#515DA4" d="M173.475,284.733c0,0-0.17,1.8-0.833,2.833
		c-0.661,1.037-2.487,0.506-2.487,0.506s-0.415-1.39,0.192-2.36C170.947,284.741,173.475,284.733,173.475,284.733"/>
	<path clip-path="url(#SVGID_46_)" fill="#515DA4" d="M176.323,284.867c0,0,1.809-0.05,2.917,0.48c1.115,0.531,0.8,2.408,0.8,2.408
		s-1.32,0.583-2.361,0.103C176.641,287.376,176.323,284.867,176.323,284.867"/>
	
		<rect x="198.955" y="213.39" transform="matrix(0.9473 -0.3202 0.3202 0.9473 -58.3565 75.6443)" clip-path="url(#SVGID_46_)" fill="#FFFFFF" width="3.73" height="3.732"/>
	
		<rect x="223.567" y="203.445" transform="matrix(0.9475 -0.3196 0.3196 0.9475 -53.7996 82.8289)" clip-path="url(#SVGID_46_)" fill="#FFFFFF" width="3.729" height="3.731"/>
	<polygon clip-path="url(#SVGID_46_)" fill="#FFFFFF" points="244.205,200.188 240.672,201.381 239.478,197.852 243.006,196.653 	
		"/>
	
		<rect x="258.727" y="190.509" transform="matrix(1 0.0039 -0.0039 1 0.7615 -1.0211)" clip-path="url(#SVGID_46_)" fill="#FFFFFF" width="3.733" height="6.05"/>
	
		<rect x="248.179" y="194.471" transform="matrix(0.9471 -0.3209 0.3209 0.9471 -49.7849 90.6351)" clip-path="url(#SVGID_46_)" fill="#FFFFFF" width="3.727" height="3.731"/>
	
		<rect x="231.772" y="200.3" transform="matrix(0.9477 -0.3192 0.3192 0.9477 -52.3059 85.1445)" clip-path="url(#SVGID_46_)" fill="#FFFFFF" width="3.728" height="3.731"/>
	<polygon clip-path="url(#SVGID_46_)" fill="#FFFFFF" points="219.59,209.743 216.053,210.942 214.861,207.407 218.397,206.208 	"/>
	<polygon clip-path="url(#SVGID_46_)" fill="#FFFFFF" points="211.383,213.014 207.853,214.204 206.663,210.668 210.191,209.472 	
		"/>
	
		<rect x="287.03" y="200.696" transform="matrix(0.9234 0.384 -0.384 0.9234 99.9183 -95.3964)" clip-path="url(#SVGID_46_)" fill="#FFFFFF" width="3.729" height="3.734"/>
	<polygon clip-path="url(#SVGID_46_)" fill="#FFFFFF" points="306.381,211.108 302.934,209.675 304.374,206.234 307.816,207.664 	
		"/>
	
		<rect x="319.373" y="213.604" transform="matrix(0.9229 0.3851 -0.3851 0.9229 107.7517 -107.0902)" clip-path="url(#SVGID_46_)" fill="#FFFFFF" width="3.729" height="3.728"/>
	<polygon clip-path="url(#SVGID_46_)" fill="#FFFFFF" points="314.308,214.506 310.87,213.075 312.301,209.627 315.744,211.065 	"/>
	<polygon clip-path="url(#SVGID_46_)" fill="#FFFFFF" points="298.141,208.054 294.696,206.615 296.138,203.179 299.573,204.612 	
		"/>
	
		<rect x="278.712" y="197.736" transform="matrix(0.9226 0.3857 -0.3857 0.9226 98.7031 -92.7786)" clip-path="url(#SVGID_46_)" fill="#FFFFFF" width="3.731" height="3.733"/>
	
		<rect x="270.395" y="194.772" transform="matrix(0.9229 0.3851 -0.3851 0.9229 96.7375 -89.6901)" clip-path="url(#SVGID_46_)" fill="#FFFFFF" width="3.729" height="3.733"/>
	<rect x="142.146" y="244.519" clip-path="url(#SVGID_46_)" fill="#FFFFFF" width="234.54" height="0.928"/>
	<rect x="145.678" y="233.697" clip-path="url(#SVGID_46_)" fill="#FFFFFF" width="4.431" height="4.079"/>
	<rect x="174.822" y="233.697" clip-path="url(#SVGID_46_)" fill="#FFFFFF" width="4.431" height="4.079"/>
	<rect x="204.509" y="233.697" clip-path="url(#SVGID_46_)" fill="#FFFFFF" width="4.431" height="4.079"/>
	<rect x="194.877" y="233.697" clip-path="url(#SVGID_46_)" fill="#FFFFFF" width="4.427" height="4.079"/>
	<rect x="184.303" y="233.697" clip-path="url(#SVGID_46_)" fill="#FFFFFF" width="4.43" height="4.079"/>
	<rect x="164.567" y="233.697" clip-path="url(#SVGID_46_)" fill="#FFFFFF" width="4.428" height="4.079"/>
	<rect x="154.889" y="233.697" clip-path="url(#SVGID_46_)" fill="#FFFFFF" width="4.432" height="4.079"/>
	<rect x="215.236" y="233.697" clip-path="url(#SVGID_46_)" fill="#FFFFFF" width="4.43" height="4.079"/>
	<rect x="225.645" y="233.697" clip-path="url(#SVGID_46_)" fill="#FFFFFF" width="4.43" height="4.079"/>
	<rect x="236.218" y="233.697" clip-path="url(#SVGID_46_)" fill="#FFFFFF" width="4.434" height="4.079"/>
	<rect x="247.718" y="233.697" clip-path="url(#SVGID_46_)" fill="#FFFFFF" width="4.431" height="4.079"/>
	<rect x="258.756" y="233.697" clip-path="url(#SVGID_46_)" fill="#FFFFFF" width="4.432" height="4.079"/>
	<rect x="269.634" y="233.697" clip-path="url(#SVGID_46_)" fill="#FFFFFF" width="4.433" height="4.079"/>
	<rect x="280.514" y="233.697" clip-path="url(#SVGID_46_)" fill="#FFFFFF" width="4.43" height="4.079"/>
	<rect x="290.925" y="233.697" clip-path="url(#SVGID_46_)" fill="#FFFFFF" width="4.43" height="4.079"/>
	<rect x="301.186" y="233.697" clip-path="url(#SVGID_46_)" fill="#FFFFFF" width="4.431" height="4.079"/>
	<rect x="310.816" y="233.697" clip-path="url(#SVGID_46_)" fill="#FFFFFF" width="4.437" height="4.079"/>
	<rect x="320.146" y="233.697" clip-path="url(#SVGID_46_)" fill="#FFFFFF" width="4.431" height="4.079"/>
	<rect x="329.935" y="233.697" clip-path="url(#SVGID_46_)" fill="#FFFFFF" width="4.434" height="4.079"/>
	<rect x="339.187" y="233.697" clip-path="url(#SVGID_46_)" fill="#FFFFFF" width="4.429" height="4.079"/>
	<rect x="349.053" y="233.697" clip-path="url(#SVGID_46_)" fill="#FFFFFF" width="4.435" height="4.079"/>
	<rect x="358.38" y="233.697" clip-path="url(#SVGID_46_)" fill="#FFFFFF" width="4.429" height="4.079"/>
	<rect x="367.864" y="233.697" clip-path="url(#SVGID_46_)" fill="#FFFFFF" width="4.429" height="4.079"/>
</g>
<g>
	<defs>
		<rect id="SVGID_47_" x="295.298" y="419.919" width="19.045" height="16.413"/>
	</defs>
	<clipPath id="SVGID_48_">
		<use xlink:href="#SVGID_47_"  overflow="visible"/>
	</clipPath>
	<rect x="295.297" y="419.918" clip-path="url(#SVGID_48_)" fill="#FFFFFF" width="19.046" height="16.414"/>
</g>
<g>
	<defs>
		<rect id="SVGID_49_" x="16.669" y="14.51" width="578.611" height="827.38"/>
	</defs>
	<clipPath id="SVGID_50_">
		<use xlink:href="#SVGID_49_"  overflow="visible"/>
	</clipPath>
	<path clip-path="url(#SVGID_50_)" fill="#515DA4" d="M294.905,436.727h19.838v-17.202h-19.838V436.727z M313.953,435.933h-18.259
		v-15.62h18.259V435.933z"/>
	<rect x="296.959" y="416.849" clip-path="url(#SVGID_50_)" fill="#515DA4" width="15.729" height="2.693"/>
</g>
<g>
	<defs>
		<rect id="SVGID_51_" x="297.887" y="409.972" width="13.871" height="6.077"/>
	</defs>
	<clipPath id="SVGID_52_">
		<use xlink:href="#SVGID_51_"  overflow="visible"/>
	</clipPath>
	<polygon clip-path="url(#SVGID_52_)" fill="#FFFFFF" points="311.758,416.049 297.887,416.049 300.994,409.972 309.079,409.972 	
		"/>
</g>
<g>
	<defs>
		<rect id="SVGID_53_" x="16.669" y="14.51" width="578.611" height="827.38"/>
	</defs>
	<clipPath id="SVGID_54_">
		<use xlink:href="#SVGID_53_"  overflow="visible"/>
	</clipPath>
	<path clip-path="url(#SVGID_54_)" fill="#515DA4" d="M300.755,409.574l-3.509,6.867h15.118l-3.028-6.867H300.755z M308.824,410.36
		c0.172,0.396,1.943,4.42,2.329,5.295h-12.621c0.46-0.907,2.521-4.93,2.703-5.295H308.824z"/>
	<rect x="304.084" y="381.621" clip-path="url(#SVGID_54_)" fill="#515DA4" width="1.483" height="28.129"/>
	<path clip-path="url(#SVGID_54_)" fill="#515DA4" d="M307.619,379.055c0,1.54-1.253,2.794-2.794,2.794
		c-1.548,0-2.803-1.254-2.803-2.794c0-1.546,1.255-2.8,2.803-2.8C306.366,376.255,307.619,377.509,307.619,379.055"/>
	<rect x="302.844" y="382.084" clip-path="url(#SVGID_54_)" fill="#515DA4" width="3.962" height="1.397"/>
</g>
<g>
	<defs>
		<rect id="SVGID_55_" x="208.501" y="419.919" width="19.047" height="16.413"/>
	</defs>
	<clipPath id="SVGID_56_">
		<use xlink:href="#SVGID_55_"  overflow="visible"/>
	</clipPath>
	<rect x="208.502" y="419.918" clip-path="url(#SVGID_56_)" fill="#FFFFFF" width="19.046" height="16.414"/>
</g>
<g>
	<defs>
		<rect id="SVGID_57_" x="16.669" y="14.51" width="578.611" height="827.38"/>
	</defs>
	<clipPath id="SVGID_58_">
		<use xlink:href="#SVGID_57_"  overflow="visible"/>
	</clipPath>
	<path clip-path="url(#SVGID_58_)" fill="#515DA4" d="M208.104,436.727h19.835v-17.202h-19.835V436.727z M227.152,435.933h-18.26
		v-15.62h18.26V435.933z"/>
	<rect x="210.156" y="416.849" clip-path="url(#SVGID_58_)" fill="#515DA4" width="15.737" height="2.693"/>
</g>
<g>
	<defs>
		<rect id="SVGID_59_" x="211.086" y="409.972" width="13.873" height="6.077"/>
	</defs>
	<clipPath id="SVGID_60_">
		<use xlink:href="#SVGID_59_"  overflow="visible"/>
	</clipPath>
	<polygon clip-path="url(#SVGID_60_)" fill="#FFFFFF" points="224.959,416.049 211.086,416.049 214.193,409.972 222.277,409.972 	
		"/>
</g>
<g>
	<defs>
		<rect id="SVGID_61_" x="16.669" y="14.51" width="578.611" height="827.38"/>
	</defs>
	<clipPath id="SVGID_62_">
		<use xlink:href="#SVGID_61_"  overflow="visible"/>
	</clipPath>
	<path clip-path="url(#SVGID_62_)" fill="#515DA4" d="M213.954,409.574l-3.51,6.867h15.12l-3.029-6.867H213.954z M222.02,410.36
		c0.176,0.396,1.947,4.42,2.333,5.295h-12.624c0.466-0.907,2.523-4.93,2.708-5.295H222.02z"/>
	<rect x="217.28" y="381.621" clip-path="url(#SVGID_62_)" fill="#515DA4" width="1.481" height="28.129"/>
	<path clip-path="url(#SVGID_62_)" fill="#515DA4" d="M220.817,379.055c0,1.54-1.249,2.794-2.797,2.794
		c-1.544,0-2.797-1.254-2.797-2.794c0-1.546,1.253-2.8,2.797-2.8C219.568,376.255,220.817,377.509,220.817,379.055"/>
	<rect x="216.041" y="382.084" clip-path="url(#SVGID_62_)" fill="#515DA4" width="3.965" height="1.397"/>
</g>
<g>
	<defs>
		<rect id="SVGID_63_" x="166.97" y="378.786" width="15.486" height="28.929"/>
	</defs>
	<clipPath id="SVGID_64_">
		<use xlink:href="#SVGID_63_"  overflow="visible"/>
	</clipPath>
	<rect x="166.97" y="378.786" clip-path="url(#SVGID_64_)" fill="#FFFFFF" width="15.486" height="28.928"/>
</g>
<g>
	<defs>
		<rect id="SVGID_65_" x="16.669" y="14.51" width="578.611" height="827.38"/>
	</defs>
	<clipPath id="SVGID_66_">
		<use xlink:href="#SVGID_65_"  overflow="visible"/>
	</clipPath>
	<path clip-path="url(#SVGID_66_)" fill="#515DA4" d="M166.572,408.102h16.278V378.39h-16.278V408.102z M182.062,407.321h-14.694
		V379.18h14.694V407.321z"/>
</g>
<g>
	<defs>
		<rect id="SVGID_67_" x="339.628" y="378.786" width="15.484" height="28.929"/>
	</defs>
	<clipPath id="SVGID_68_">
		<use xlink:href="#SVGID_67_"  overflow="visible"/>
	</clipPath>
	<rect x="339.628" y="378.786" clip-path="url(#SVGID_68_)" fill="#FFFFFF" width="15.483" height="28.928"/>
</g>
<g>
	<defs>
		<rect id="SVGID_69_" x="16.669" y="14.51" width="578.611" height="827.38"/>
	</defs>
	<clipPath id="SVGID_70_">
		<use xlink:href="#SVGID_69_"  overflow="visible"/>
	</clipPath>
	<path clip-path="url(#SVGID_70_)" fill="#515DA4" d="M339.23,408.102h16.272V378.39H339.23V408.102z M354.719,407.321H340.02
		V379.18h14.699V407.321z"/>
	<rect x="371.345" y="273.901" clip-path="url(#SVGID_70_)" fill="#515DA4" width="30.833" height="3.585"/>
	<rect x="77.877" y="273.901" clip-path="url(#SVGID_70_)" fill="#515DA4" width="71.453" height="3.585"/>
	<rect x="383.64" y="395.755" clip-path="url(#SVGID_70_)" fill="#515DA4" width="7.498" height="11.479"/>
	<rect x="122.326" y="291.16" clip-path="url(#SVGID_70_)" fill="#FFFFFF" width="1.7" height="43.832"/>
	<rect x="383.64" y="369.028" clip-path="url(#SVGID_70_)" fill="#515DA4" width="7.498" height="11.47"/>
	<rect x="455.971" y="369.028" clip-path="url(#SVGID_70_)" fill="#515DA4" width="10.736" height="11.47"/>
	<rect x="456.395" y="355.42" clip-path="url(#SVGID_70_)" fill="#515DA4" width="4.678" height="11.485"/>
	<rect x="390.811" y="240.398" clip-path="url(#SVGID_70_)" fill="#515DA4" width="16.146" height="26.168"/>
	<rect x="427.534" y="240.398" clip-path="url(#SVGID_70_)" fill="#515DA4" width="16.153" height="26.168"/>
	<rect x="464.063" y="240.398" clip-path="url(#SVGID_70_)" fill="#515DA4" width="16.151" height="26.168"/>
	<rect x="390.586" y="301.035" clip-path="url(#SVGID_70_)" fill="#515DA4" width="16.149" height="32.681"/>
	<rect x="427.313" y="301.035" clip-path="url(#SVGID_70_)" fill="#515DA4" width="16.152" height="32.681"/>
	<rect x="389.747" y="313.316" clip-path="url(#SVGID_70_)" fill="#FFFFFF" width="153.037" height="2.551"/>
	<rect x="434.282" y="293.957" clip-path="url(#SVGID_70_)" fill="#FFFFFF" width="1.703" height="41.035"/>
</g>
<g>
	<defs>
		<rect id="SVGID_71_" x="428.169" y="283.264" width="14.633" height="14.634"/>
	</defs>
	<clipPath id="SVGID_72_">
		<use xlink:href="#SVGID_71_"  overflow="visible"/>
	</clipPath>
	<path clip-path="url(#SVGID_72_)" fill="#FFFFFF" d="M428.169,290.581c0,4.042,3.277,7.317,7.316,7.317
		c4.044,0,7.315-3.275,7.315-7.317c0-4.041-3.271-7.317-7.315-7.317C431.446,283.264,428.169,286.54,428.169,290.581"/>
</g>
<g>
	<defs>
		<rect id="SVGID_73_" x="16.669" y="14.51" width="578.611" height="827.38"/>
	</defs>
	<clipPath id="SVGID_74_">
		<use xlink:href="#SVGID_73_"  overflow="visible"/>
	</clipPath>
	<path clip-path="url(#SVGID_74_)" fill="#515DA4" d="M430.033,285.132c-1.454,1.453-2.256,3.385-2.256,5.449
		c0,4.25,3.458,7.715,7.708,7.715c4.251,0,7.713-3.465,7.713-7.715c0-4.247-3.462-7.706-7.713-7.706
		C433.425,282.875,431.486,283.678,430.033,285.132 M428.562,290.581c0-1.849,0.721-3.59,2.027-4.897
		c1.31-1.301,3.043-2.021,4.896-2.021c3.816,0,6.921,3.102,6.921,6.918c0,3.816-3.104,6.921-6.921,6.921
		C431.67,297.502,428.562,294.397,428.562,290.581"/>
	<path clip-path="url(#SVGID_74_)" fill="#515DA4" d="M433.419,290.637c0,1.24,0.997,2.238,2.236,2.238
		c1.235,0,2.234-0.998,2.234-2.238c0-1.231-0.999-2.234-2.234-2.234C434.416,288.403,433.419,289.406,433.419,290.637"/>
	<path clip-path="url(#SVGID_74_)" fill="#515DA4" d="M435.5,288.636c0,0,0.921-1.312,1.078-2.392
		c0.154-1.077-1.385-1.774-1.385-1.774s-1.085,0.697-1.233,1.698C433.803,287.17,435.5,288.636,435.5,288.636"/>
	<path clip-path="url(#SVGID_74_)" fill="#515DA4" d="M437.426,290.945c0,0,1.309,0.925,2.387,1.08
		c1.082,0.156,1.774-1.385,1.774-1.385s-0.692-1.081-1.694-1.235C438.892,289.252,437.426,290.945,437.426,290.945"/>
	<path clip-path="url(#SVGID_74_)" fill="#515DA4" d="M433.548,290.834c0,0-1.16-1.104-2.208-1.423
		c-1.041-0.314-1.955,1.11-1.955,1.11s0.526,1.167,1.491,1.469C431.845,292.293,433.548,290.834,433.548,290.834"/>
	<path clip-path="url(#SVGID_74_)" fill="#515DA4" d="M436.798,289.347c0,0,1.606-0.019,2.571-0.526
		c0.964-0.506,0.626-2.164,0.626-2.164s-1.198-0.469-2.094-0.007C436.993,287.113,436.798,289.347,436.798,289.347"/>
	<path clip-path="url(#SVGID_74_)" fill="#515DA4" d="M434.209,289.257c0,0-0.481-1.533-1.239-2.316
		c-0.761-0.776-2.253,0.024-2.253,0.024s-0.103,1.28,0.596,2.015C432.015,289.71,434.209,289.257,434.209,289.257"/>
	<path clip-path="url(#SVGID_74_)" fill="#515DA4" d="M435.588,292.513c0,0-0.994,1.256-1.222,2.327
		c-0.217,1.066,1.277,1.851,1.277,1.851s1.119-0.625,1.338-1.62C437.189,294.08,435.588,292.513,435.588,292.513"/>
	<path clip-path="url(#SVGID_74_)" fill="#515DA4" d="M436.976,292.021c0,0,0.147,1.598,0.732,2.514
		c0.583,0.923,2.214,0.446,2.214,0.446s0.359-1.228-0.176-2.092C439.214,292.031,436.976,292.021,436.976,292.021"/>
	<path clip-path="url(#SVGID_74_)" fill="#515DA4" d="M434.447,292.148c0,0-1.605-0.046-2.594,0.416
		c-0.986,0.473-0.709,2.144-0.709,2.144s1.181,0.511,2.097,0.086C434.162,294.37,434.447,292.148,434.447,292.148"/>
	<rect x="360.417" y="230.699" clip-path="url(#SVGID_74_)" fill="#515DA4" width="81.145" height="3.107"/>
	<rect x="377.434" y="338.252" clip-path="url(#SVGID_74_)" fill="#515DA4" width="110.832" height="2.796"/>
	<rect x="379.278" y="346.488" clip-path="url(#SVGID_74_)" fill="#515DA4" width="106.118" height="5.602"/>
	<rect x="462.769" y="355.42" clip-path="url(#SVGID_74_)" fill="#515DA4" width="15.036" height="11.485"/>
	<rect x="436.787" y="355.42" clip-path="url(#SVGID_74_)" fill="#515DA4" width="24.232" height="11.485"/>
	<rect x="420.209" y="369.028" clip-path="url(#SVGID_74_)" fill="#515DA4" width="24.232" height="11.47"/>
	<rect x="409.158" y="355.42" clip-path="url(#SVGID_74_)" fill="#515DA4" width="24.229" height="11.485"/>
	<rect x="393.855" y="369.028" clip-path="url(#SVGID_74_)" fill="#515DA4" width="24.229" height="11.47"/>
	<rect x="446.99" y="369.028" clip-path="url(#SVGID_74_)" fill="#515DA4" width="14.029" height="11.47"/>
	<rect x="383.655" y="355.42" clip-path="url(#SVGID_74_)" fill="#515DA4" width="22.522" height="11.485"/>
	<rect x="436.787" y="409.818" clip-path="url(#SVGID_74_)" fill="#515DA4" width="10.563" height="9.118"/>
	<rect x="409.158" y="409.821" clip-path="url(#SVGID_74_)" fill="#515DA4" width="24.229" height="11.482"/>
	<rect x="393.855" y="423.427" clip-path="url(#SVGID_74_)" fill="#515DA4" width="24.229" height="11.473"/>
	<rect x="383.655" y="409.821" clip-path="url(#SVGID_74_)" fill="#515DA4" width="22.522" height="11.482"/>
	<rect x="436.787" y="382.153" clip-path="url(#SVGID_74_)" fill="#515DA4" width="20.291" height="11.483"/>
	<rect x="420.209" y="395.755" clip-path="url(#SVGID_74_)" fill="#515DA4" width="24.232" height="11.479"/>
	<rect x="409.158" y="382.153" clip-path="url(#SVGID_74_)" fill="#515DA4" width="24.229" height="11.483"/>
	<rect x="393.855" y="395.755" clip-path="url(#SVGID_74_)" fill="#515DA4" width="24.229" height="11.479"/>
	<rect x="383.655" y="382.153" clip-path="url(#SVGID_74_)" fill="#515DA4" width="22.522" height="11.483"/>
</g>
<g>
	<defs>
		<rect id="SVGID_75_" x="390.865" y="378.786" width="15.48" height="28.929"/>
	</defs>
	<clipPath id="SVGID_76_">
		<use xlink:href="#SVGID_75_"  overflow="visible"/>
	</clipPath>
	<rect x="390.864" y="378.786" clip-path="url(#SVGID_76_)" fill="#FFFFFF" width="15.48" height="28.928"/>
</g>
<g>
	<defs>
		<rect id="SVGID_77_" x="16.669" y="14.51" width="578.611" height="827.38"/>
	</defs>
	<clipPath id="SVGID_78_">
		<use xlink:href="#SVGID_77_"  overflow="visible"/>
	</clipPath>
	<path clip-path="url(#SVGID_78_)" fill="#515DA4" d="M390.469,408.102h16.272V378.39h-16.272V408.102z M405.954,407.321h-14.7
		V379.18h14.7V407.321z"/>
</g>
<g>
	<defs>
		<rect id="SVGID_79_" x="384.05" y="416.778" width="63.617" height="19.964"/>
	</defs>
	<clipPath id="SVGID_80_">
		<use xlink:href="#SVGID_79_"  overflow="visible"/>
	</clipPath>
	<rect x="384.05" y="416.779" clip-path="url(#SVGID_80_)" fill="#FFFFFF" width="63.617" height="19.963"/>
</g>
<g>
	<defs>
		<rect id="SVGID_81_" x="16.669" y="14.51" width="578.611" height="827.38"/>
	</defs>
	<clipPath id="SVGID_82_">
		<use xlink:href="#SVGID_81_"  overflow="visible"/>
	</clipPath>
	<path clip-path="url(#SVGID_82_)" fill="#515DA4" d="M383.747,437.13h64.315v-20.75h-64.315V437.13z M447.272,436.343h-62.743
		v-19.168h62.743V436.343z"/>
	<polygon clip-path="url(#SVGID_82_)" fill="#515DA4" points="390.771,226.813 434.895,226.813 413.406,210.021 342.652,210.021 	
		"/>
	<rect x="114.619" y="240.398" clip-path="url(#SVGID_82_)" fill="#515DA4" width="16.152" height="26.168"/>
	<polygon clip-path="url(#SVGID_82_)" fill="#515DA4" points="93.522,250.89 93.522,266.564 82.979,266.564 	"/>
	<rect x="114.841" y="301.035" clip-path="url(#SVGID_82_)" fill="#515DA4" width="16.152" height="32.681"/>
	<rect x="76.463" y="301.035" clip-path="url(#SVGID_82_)" fill="#515DA4" width="16.147" height="32.681"/>
	<rect x="73.61" y="313.316" clip-path="url(#SVGID_82_)" fill="#FFFFFF" width="57.699" height="2.551"/>
	<rect x="397.782" y="293.957" clip-path="url(#SVGID_82_)" fill="#FFFFFF" width="1.692" height="41.035"/>
	<rect x="122.3" y="293.957" clip-path="url(#SVGID_82_)" fill="#FFFFFF" width="1.694" height="41.035"/>
	<rect x="83.948" y="293.957" clip-path="url(#SVGID_82_)" fill="#FFFFFF" width="1.698" height="41.035"/>
</g>
<g>
	<defs>
		<rect id="SVGID_83_" x="77.125" y="283.264" width="14.634" height="14.634"/>
	</defs>
	<clipPath id="SVGID_84_">
		<use xlink:href="#SVGID_83_"  overflow="visible"/>
	</clipPath>
	<path clip-path="url(#SVGID_84_)" fill="#FFFFFF" d="M91.759,290.581c0,4.042-3.277,7.317-7.316,7.317
		c-4.041,0-7.317-3.275-7.317-7.317c0-4.041,3.276-7.317,7.317-7.317C88.482,283.264,91.759,286.54,91.759,290.581"/>
</g>
<g>
	<defs>
		<rect id="SVGID_85_" x="16.669" y="14.51" width="578.611" height="827.38"/>
	</defs>
	<clipPath id="SVGID_86_">
		<use xlink:href="#SVGID_85_"  overflow="visible"/>
	</clipPath>
	<path clip-path="url(#SVGID_86_)" fill="#515DA4" d="M78.989,285.132c-1.451,1.453-2.259,3.385-2.259,5.449
		c0,4.25,3.463,7.715,7.712,7.715c4.253,0,7.708-3.465,7.708-7.715c0-2.064-0.801-3.996-2.26-5.449
		c-1.452-1.454-3.39-2.257-5.448-2.257C82.38,282.875,80.445,283.678,78.989,285.132 M77.521,290.581
		c0-1.849,0.722-3.59,2.031-4.897c1.303-1.301,3.04-2.021,4.891-2.021s3.589,0.72,4.896,2.021c1.307,1.307,2.023,3.048,2.023,4.897
		c0,3.816-3.104,6.921-6.919,6.921C80.626,297.502,77.521,294.397,77.521,290.581"/>
	<path clip-path="url(#SVGID_86_)" fill="#515DA4" d="M86.511,290.637c0,1.24-1,2.238-2.237,2.238c-1.233,0-2.233-0.998-2.233-2.238
		c0-1.231,1-2.234,2.233-2.234C85.511,288.403,86.511,289.406,86.511,290.637"/>
	<path clip-path="url(#SVGID_86_)" fill="#515DA4" d="M84.432,288.636c0,0-0.93-1.312-1.082-2.392
		c-0.155-1.077,1.385-1.774,1.385-1.774s1.086,0.697,1.235,1.698C86.128,287.17,84.432,288.636,84.432,288.636"/>
	<path clip-path="url(#SVGID_86_)" fill="#515DA4" d="M82.501,290.945c0,0-1.309,0.925-2.387,1.08
		c-1.085,0.156-1.776-1.385-1.776-1.385s0.691-1.081,1.696-1.235C81.038,289.252,82.501,290.945,82.501,290.945"/>
	<path clip-path="url(#SVGID_86_)" fill="#515DA4" d="M86.384,290.834c0,0,1.157-1.104,2.198-1.423
		c1.049-0.314,1.965,1.11,1.965,1.11s-0.527,1.167-1.497,1.469C88.086,292.293,86.384,290.834,86.384,290.834"/>
	<path clip-path="url(#SVGID_86_)" fill="#515DA4" d="M83.129,289.347c0,0-1.603-0.019-2.567-0.526
		c-0.967-0.506-0.625-2.164-0.625-2.164s1.189-0.469,2.095-0.007C82.932,287.113,83.129,289.347,83.129,289.347"/>
	<path clip-path="url(#SVGID_86_)" fill="#515DA4" d="M85.721,289.257c0,0,0.477-1.533,1.239-2.316
		c0.761-0.776,2.25,0.024,2.25,0.024s0.108,1.28-0.595,2.015C87.916,289.71,85.721,289.257,85.721,289.257"/>
	<path clip-path="url(#SVGID_86_)" fill="#515DA4" d="M84.338,292.513c0,0,1.002,1.256,1.224,2.327
		c0.216,1.066-1.279,1.851-1.279,1.851s-1.114-0.625-1.333-1.62C82.736,294.08,84.338,292.513,84.338,292.513"/>
	<path clip-path="url(#SVGID_86_)" fill="#515DA4" d="M82.951,292.021c0,0-0.149,1.598-0.732,2.514
		c-0.588,0.923-2.207,0.446-2.207,0.446s-0.369-1.228,0.166-2.092C80.713,292.031,82.951,292.021,82.951,292.021"/>
	<path clip-path="url(#SVGID_86_)" fill="#515DA4" d="M85.483,292.148c0,0,1.599-0.046,2.584,0.416
		c0.988,0.473,0.71,2.144,0.71,2.144s-1.171,0.511-2.092,0.086C85.764,294.37,85.483,292.148,85.483,292.148"/>
	<rect x="110.218" y="230.699" clip-path="url(#SVGID_86_)" fill="#515DA4" width="50.944" height="3.107"/>
	<rect x="68.35" y="338.252" clip-path="url(#SVGID_86_)" fill="#515DA4" width="76.658" height="2.796"/>
	<rect x="61.444" y="346.488" clip-path="url(#SVGID_86_)" fill="#515DA4" width="80.856" height="5.602"/>
	<rect x="63.447" y="355.42" clip-path="url(#SVGID_86_)" fill="#515DA4" width="21.342" height="11.485"/>
	<rect x="77.137" y="369.028" clip-path="url(#SVGID_86_)" fill="#515DA4" width="24.234" height="11.47"/>
	<rect x="88.188" y="355.42" clip-path="url(#SVGID_86_)" fill="#515DA4" width="24.23" height="11.485"/>
	<rect x="104.1" y="369.028" clip-path="url(#SVGID_86_)" fill="#515DA4" width="23.623" height="11.47"/>
	<rect x="61.748" y="369.028" clip-path="url(#SVGID_86_)" fill="#515DA4" width="12.839" height="11.47"/>
	<rect x="115.399" y="355.42" clip-path="url(#SVGID_86_)" fill="#515DA4" width="22.521" height="11.485"/>
	<rect x="73.748" y="409.818" clip-path="url(#SVGID_86_)" fill="#515DA4" width="11.041" height="9.118"/>
	<rect x="88.188" y="409.821" clip-path="url(#SVGID_86_)" fill="#515DA4" width="24.23" height="11.482"/>
	<rect x="115.399" y="409.821" clip-path="url(#SVGID_86_)" fill="#515DA4" width="22.521" height="11.482"/>
	<rect x="63.312" y="382.761" clip-path="url(#SVGID_86_)" fill="#515DA4" width="21.477" height="10.875"/>
	<rect x="77.137" y="395.755" clip-path="url(#SVGID_86_)" fill="#515DA4" width="24.234" height="11.479"/>
	<rect x="88.188" y="382.761" clip-path="url(#SVGID_86_)" fill="#515DA4" width="24.23" height="10.875"/>
	<rect x="104.1" y="395.755" clip-path="url(#SVGID_86_)" fill="#515DA4" width="23.623" height="11.479"/>
	<rect x="115.399" y="382.153" clip-path="url(#SVGID_86_)" fill="#515DA4" width="22.521" height="11.483"/>
</g>
<g>
	<defs>
		<rect id="SVGID_87_" x="115.231" y="378.786" width="15.485" height="28.929"/>
	</defs>
	<clipPath id="SVGID_88_">
		<use xlink:href="#SVGID_87_"  overflow="visible"/>
	</clipPath>
	<rect x="115.23" y="378.786" clip-path="url(#SVGID_88_)" fill="#FFFFFF" width="15.485" height="28.928"/>
</g>
<g>
	<defs>
		<rect id="SVGID_89_" x="16.669" y="14.51" width="578.611" height="827.38"/>
	</defs>
	<clipPath id="SVGID_90_">
		<use xlink:href="#SVGID_89_"  overflow="visible"/>
	</clipPath>
	<path clip-path="url(#SVGID_90_)" fill="#515DA4" d="M114.833,408.102h16.275V378.39h-16.275V408.102z M130.32,407.321h-14.695
		V379.18h14.695V407.321z"/>
</g>
<g>
	<defs>
		<rect id="SVGID_91_" x="69.555" y="372.125" width="24.711" height="40.564"/>
	</defs>
	<clipPath id="SVGID_92_">
		<use xlink:href="#SVGID_91_"  overflow="visible"/>
	</clipPath>
	<rect x="69.553" y="372.125" clip-path="url(#SVGID_92_)" fill="#FFFFFF" width="24.713" height="40.564"/>
</g>
<g>
	<defs>
		<rect id="SVGID_93_" x="16.669" y="14.51" width="578.611" height="827.38"/>
	</defs>
	<clipPath id="SVGID_94_">
		<use xlink:href="#SVGID_93_"  overflow="visible"/>
	</clipPath>
	<path clip-path="url(#SVGID_94_)" fill="#515DA4" d="M69.163,413.083h25.499v-41.357H69.163V413.083z M93.872,412.293H69.945
		v-39.78h23.927V412.293z"/>
</g>
<g>
	<defs>
		<rect id="SVGID_95_" x="74.198" y="378.786" width="15.486" height="28.929"/>
	</defs>
	<clipPath id="SVGID_96_">
		<use xlink:href="#SVGID_95_"  overflow="visible"/>
	</clipPath>
	<rect x="74.198" y="378.786" clip-path="url(#SVGID_96_)" fill="#FFFFFF" width="15.486" height="28.928"/>
</g>
<g>
	<defs>
		<rect id="SVGID_97_" x="16.669" y="14.51" width="578.611" height="827.38"/>
	</defs>
	<clipPath id="SVGID_98_">
		<use xlink:href="#SVGID_97_"  overflow="visible"/>
	</clipPath>
	<path clip-path="url(#SVGID_98_)" fill="#515DA4" d="M73.803,408.102h16.273V378.39H73.803V408.102z M89.287,407.321H74.593V379.18
		h14.694V407.321z"/>
</g>
<g>
	<defs>
		<rect id="SVGID_99_" x="73.69" y="416.778" width="63.709" height="19.964"/>
	</defs>
	<clipPath id="SVGID_100_">
		<use xlink:href="#SVGID_99_"  overflow="visible"/>
	</clipPath>
	<rect x="73.689" y="416.779" clip-path="url(#SVGID_100_)" fill="#FFFFFF" width="63.71" height="19.963"/>
</g>
<g>
	<defs>
		<rect id="SVGID_101_" x="16.669" y="14.51" width="578.611" height="827.38"/>
	</defs>
	<clipPath id="SVGID_102_">
		<use xlink:href="#SVGID_101_"  overflow="visible"/>
	</clipPath>
	<path clip-path="url(#SVGID_102_)" fill="#515DA4" d="M73.513,437.13h64.5v-20.75h-64.5V437.13z M137.224,436.343H74.303v-19.168
		h62.921V436.343z"/>
	<polygon clip-path="url(#SVGID_102_)" fill="#515DA4" points="130.805,226.813 107.888,226.813 128.609,210.021 178.926,210.021 	
		"/>
	<rect x="230.493" y="432.102" clip-path="url(#SVGID_102_)" fill="#515DA4" width="62.17" height="5.439"/>
	<rect x="233.602" y="428.532" clip-path="url(#SVGID_102_)" fill="#515DA4" width="56.267" height="2.48"/>
	<rect x="233.606" y="375.832" clip-path="url(#SVGID_102_)" fill="#515DA4" width="1.66" height="14.341"/>
	<rect x="236.853" y="375.832" clip-path="url(#SVGID_102_)" fill="#515DA4" width="1.579" height="14.341"/>
	<rect x="287.071" y="375.832" clip-path="url(#SVGID_102_)" fill="#515DA4" width="1.662" height="14.341"/>
	<rect x="283.949" y="375.832" clip-path="url(#SVGID_102_)" fill="#515DA4" width="1.571" height="14.341"/>
	<rect x="231.877" y="364.312" clip-path="url(#SVGID_102_)" fill="#515DA4" width="59.016" height="2.973"/>
	<rect x="258.745" y="366.381" clip-path="url(#SVGID_102_)" fill="#515DA4" width="4.981" height="4.689"/>
	<rect x="233.725" y="366.585" clip-path="url(#SVGID_102_)" fill="#515DA4" width="6.685" height="11.579"/>
	<rect x="282.063" y="366.51" clip-path="url(#SVGID_102_)" fill="#515DA4" width="6.684" height="11.654"/>
	<rect x="239.041" y="370.628" clip-path="url(#SVGID_102_)" fill="#515DA4" width="45.85" height="1.557"/>
	<path clip-path="url(#SVGID_102_)" fill="#515DA4" d="M244.263,386.478l-0.026,0.068v42.545h34.745v-42.558l-0.044-0.09
		c-0.046-0.094-5.047-9.603-17.853-9.603C248.25,376.84,244.304,386.381,244.263,386.478 M261.085,377.628
		c11.801,0,16.682,8.322,17.109,9.092v41.582h-33.171v-41.596C245.31,386.047,249.213,377.628,261.085,377.628"/>
	<rect x="260.911" y="380.614" clip-path="url(#SVGID_102_)" fill="#FFFFFF" width="1.283" height="47.449"/>
	<path clip-path="url(#SVGID_102_)" fill="#515DA4" d="M55.966,357.333c0-118.353,86.662-194.823,220.78-194.823
		c70.832,0,133.938,29.619,174.362,75.519c1.033-1.493,2.412-2.864,3.842-4.255c-41.499-46.815-105.927-76.982-178.204-76.982
		c-63.228,0-120.032,18.016-159.948,50.725c-43.536,35.678-66.548,87.48-66.548,149.816c0,44.052,16.164,84.804,43.46,117.926
		c0.728-2.122,1.52-4.207,2.265-6.276C70.802,437.336,55.966,398.849,55.966,357.333"/>
</g>
<g>
	<defs>
		<rect id="SVGID_103_" x="110.758" y="372.125" width="24.711" height="40.568"/>
	</defs>
	<clipPath id="SVGID_104_">
		<use xlink:href="#SVGID_103_"  overflow="visible"/>
	</clipPath>
	<rect x="110.756" y="372.125" clip-path="url(#SVGID_104_)" fill="#FFFFFF" width="24.711" height="40.568"/>
</g>
<g>
	<defs>
		<rect id="SVGID_105_" x="16.669" y="14.51" width="578.611" height="827.38"/>
	</defs>
	<clipPath id="SVGID_106_">
		<use xlink:href="#SVGID_105_"  overflow="visible"/>
	</clipPath>
	<path clip-path="url(#SVGID_106_)" fill="#515DA4" d="M110.366,413.083h25.499v-41.357h-25.499V413.083z M135.076,412.294H111.15
		v-39.778h23.926V412.294z"/>
</g>
<g>
	<defs>
		<rect id="SVGID_107_" x="115.401" y="378.786" width="15.486" height="28.929"/>
	</defs>
	<clipPath id="SVGID_108_">
		<use xlink:href="#SVGID_107_"  overflow="visible"/>
	</clipPath>
	<rect x="115.403" y="378.786" clip-path="url(#SVGID_108_)" fill="#FFFFFF" width="15.485" height="28.928"/>
</g>
<g>
	<defs>
		<rect id="SVGID_109_" x="16.669" y="14.51" width="578.611" height="827.38"/>
	</defs>
	<clipPath id="SVGID_110_">
		<use xlink:href="#SVGID_109_"  overflow="visible"/>
	</clipPath>
	<path clip-path="url(#SVGID_110_)" fill="#515DA4" d="M115.004,408.102h16.273V378.39h-16.273V408.102z M130.491,407.321h-14.694
		V379.18h14.694V407.321z"/>
</g>
<g>
	<defs>
		<rect id="SVGID_111_" x="162.441" y="372.242" width="24.71" height="40.567"/>
	</defs>
	<clipPath id="SVGID_112_">
		<use xlink:href="#SVGID_111_"  overflow="visible"/>
	</clipPath>
	<rect x="162.438" y="372.246" clip-path="url(#SVGID_112_)" fill="#FFFFFF" width="24.713" height="40.563"/>
</g>
<g>
	<defs>
		<rect id="SVGID_113_" x="16.669" y="14.51" width="578.611" height="827.38"/>
	</defs>
	<clipPath id="SVGID_114_">
		<use xlink:href="#SVGID_113_"  overflow="visible"/>
	</clipPath>
	<path clip-path="url(#SVGID_114_)" fill="#515DA4" d="M162.048,413.203h25.499v-41.356h-25.499V413.203z M186.758,412.412h-23.924
		v-39.777h23.924V412.412z"/>
</g>
<g>
	<defs>
		<rect id="SVGID_115_" x="167.084" y="378.906" width="15.486" height="28.929"/>
	</defs>
	<clipPath id="SVGID_116_">
		<use xlink:href="#SVGID_115_"  overflow="visible"/>
	</clipPath>
	<rect x="167.084" y="378.907" clip-path="url(#SVGID_116_)" fill="#FFFFFF" width="15.487" height="28.928"/>
</g>
<g>
	<defs>
		<rect id="SVGID_117_" x="16.669" y="14.51" width="578.611" height="827.38"/>
	</defs>
	<clipPath id="SVGID_118_">
		<use xlink:href="#SVGID_117_"  overflow="visible"/>
	</clipPath>
	<path clip-path="url(#SVGID_118_)" fill="#515DA4" d="M166.689,408.223h16.269v-29.714h-16.269V408.223z M182.173,407.437h-14.694
		v-28.141h14.694V407.437z"/>
</g>
<g>
	<defs>
		<rect id="SVGID_119_" x="334.996" y="372.242" width="24.71" height="40.567"/>
	</defs>
	<clipPath id="SVGID_120_">
		<use xlink:href="#SVGID_119_"  overflow="visible"/>
	</clipPath>
	<rect x="334.996" y="372.246" clip-path="url(#SVGID_120_)" fill="#FFFFFF" width="24.71" height="40.563"/>
</g>
<g>
	<defs>
		<rect id="SVGID_121_" x="16.669" y="14.51" width="578.611" height="827.38"/>
	</defs>
	<clipPath id="SVGID_122_">
		<use xlink:href="#SVGID_121_"  overflow="visible"/>
	</clipPath>
	<path clip-path="url(#SVGID_122_)" fill="#515DA4" d="M334.604,413.203h25.499v-41.356h-25.499V413.203z M359.313,412.412h-23.925
		v-39.777h23.925V412.412z"/>
</g>
<g>
	<defs>
		<rect id="SVGID_123_" x="339.639" y="378.906" width="15.487" height="28.929"/>
	</defs>
	<clipPath id="SVGID_124_">
		<use xlink:href="#SVGID_123_"  overflow="visible"/>
	</clipPath>
	<rect x="339.64" y="378.907" clip-path="url(#SVGID_124_)" fill="#FFFFFF" width="15.487" height="28.928"/>
</g>
<g>
	<defs>
		<rect id="SVGID_125_" x="16.669" y="14.51" width="578.611" height="827.38"/>
	</defs>
	<clipPath id="SVGID_126_">
		<use xlink:href="#SVGID_125_"  overflow="visible"/>
	</clipPath>
	<path clip-path="url(#SVGID_126_)" fill="#515DA4" d="M339.242,408.223h16.272v-29.714h-16.272V408.223z M354.729,407.437h-14.693
		v-28.141h14.693V407.437z"/>
</g>
<g>
	<defs>
		<rect id="SVGID_127_" x="386.24" y="372.319" width="24.71" height="40.564"/>
	</defs>
	<clipPath id="SVGID_128_">
		<use xlink:href="#SVGID_127_"  overflow="visible"/>
	</clipPath>
	<rect x="386.239" y="372.32" clip-path="url(#SVGID_128_)" fill="#FFFFFF" width="24.711" height="40.563"/>
</g>
<g>
	<defs>
		<rect id="SVGID_129_" x="16.669" y="14.51" width="578.611" height="827.38"/>
	</defs>
	<clipPath id="SVGID_130_">
		<use xlink:href="#SVGID_129_"  overflow="visible"/>
	</clipPath>
	<path clip-path="url(#SVGID_130_)" fill="#515DA4" d="M385.847,413.279h25.5v-41.357h-25.5V413.279z M410.557,412.486h-23.925
		V372.71h23.925V412.486z"/>
</g>
<g>
	<defs>
		<rect id="SVGID_131_" x="390.882" y="378.982" width="15.488" height="28.93"/>
	</defs>
	<clipPath id="SVGID_132_">
		<use xlink:href="#SVGID_131_"  overflow="visible"/>
	</clipPath>
	<rect x="390.882" y="378.983" clip-path="url(#SVGID_132_)" fill="#FFFFFF" width="15.488" height="28.929"/>
</g>
<g>
	<defs>
		<rect id="SVGID_133_" x="16.669" y="14.51" width="578.611" height="827.38"/>
	</defs>
	<clipPath id="SVGID_134_">
		<use xlink:href="#SVGID_133_"  overflow="visible"/>
	</clipPath>
	<path clip-path="url(#SVGID_134_)" fill="#515DA4" d="M390.484,408.299h16.272v-29.712h-16.272V408.299z M405.973,407.516h-14.693
		v-28.141h14.693V407.516z"/>
</g>
<g>
	<defs>
		<rect id="SVGID_135_" x="427.344" y="372.302" width="24.715" height="40.564"/>
	</defs>
	<clipPath id="SVGID_136_">
		<use xlink:href="#SVGID_135_"  overflow="visible"/>
	</clipPath>
	<rect x="427.348" y="372.303" clip-path="url(#SVGID_136_)" fill="#FFFFFF" width="24.712" height="40.563"/>
</g>
<g>
	<defs>
		<rect id="SVGID_137_" x="16.669" y="14.51" width="578.611" height="827.38"/>
	</defs>
	<clipPath id="SVGID_138_">
		<use xlink:href="#SVGID_137_"  overflow="visible"/>
	</clipPath>
	<path clip-path="url(#SVGID_138_)" fill="#515DA4" d="M426.954,413.262h25.5v-41.357h-25.5V413.262z M451.664,412.47h-23.926
		v-39.78h23.926V412.47z"/>
</g>
<g>
	<defs>
		<rect id="SVGID_139_" x="431.986" y="378.966" width="15.486" height="28.931"/>
	</defs>
	<clipPath id="SVGID_140_">
		<use xlink:href="#SVGID_139_"  overflow="visible"/>
	</clipPath>
	<rect x="431.987" y="378.968" clip-path="url(#SVGID_140_)" fill="#FFFFFF" width="15.486" height="28.929"/>
</g>
<g>
	<defs>
		<rect id="SVGID_141_" x="16.669" y="14.51" width="578.611" height="827.38"/>
	</defs>
	<clipPath id="SVGID_142_">
		<use xlink:href="#SVGID_141_"  overflow="visible"/>
	</clipPath>
	<path clip-path="url(#SVGID_142_)" fill="#515DA4" d="M431.594,408.285h16.272v-29.712h-16.272V408.285z M447.075,407.498h-14.691
		v-28.14h14.691V407.498z"/>
	<path clip-path="url(#SVGID_142_)" fill="#FFFFFF" d="M471.508,207.701c0,0-17.084,16.733-22.445,27.096
		c-5.356,10.357-7.143,29.293-7.143,29.293l-20.006-14.65l-23.223-11.073c0,0-7.143,16.434-3.931,32.866
		c2.027,10.355,5.12,15.6,12.026,23.7c3.916,4.592,18.459,15.56,18.82,20.007c0.276,3.396-12.555,1.096-15.96,0.473
		c-7.856-1.427-17.071,1.699-17.071,1.699l14.857,22.041c0,0,6.417,15.388,11.461,21.788c5.045,6.396,10.763,13.78,10.763,13.78
		l7.382,9.285l-20.01,2.385l5.716,18.576l10.958,18.577l10.183,9.082l-6.612-3.128l-11.073-6.432l-13.883-9.511l-8.623-7.279
		l-1.785,30.721l-0.716,20.723l5.858,18.969l28.079,45.339l50.73-70.734l5.715-103.249l2.505-31.081l-6.073-29.653
		c0,0,3.568-21.436,2.143-38.226c-1.429-16.791-13.221-49.3-13.221-49.3L471.508,207.701z"/>
</g>
<g>
	<defs>
		<rect id="SVGID_143_" x="16.669" y="14.51" width="578.611" height="827.38"/>
	</defs>
	<clipPath id="SVGID_144_">
		<use xlink:href="#SVGID_143_"  overflow="visible"/>
	</clipPath>
	<g clip-path="url(#SVGID_144_)">
		<text transform="matrix(0.9659 0 -0.2588 0.9659 147.3584 477.8794)"><tspan x="0" y="0" fill="#515DA4" font-family="'CenturySchoolbook-Bold'" font-size="37.0001">М</tspan><tspan x="36.259" y="0" fill="#515DA4" font-family="'CenturySchoolbook-Bold'" font-size="37.0001">ИИ</tspan><tspan x="100.412" y="0" fill="#515DA4" font-family="'CenturySchoolbook-Bold'" font-size="37.0001" letter-spacing="-2.071">Г</tspan><tspan x="123.544" y="0" fill="#515DA4" font-family="'CenturySchoolbook-Bold'" font-size="37.0001">А</tspan><tspan x="152.544" y="0" fill="#515DA4" font-family="'CenturySchoolbook-Bold'" font-size="37.0001">и</tspan><tspan x="178.068" y="0" fill="#515DA4" font-family="'CenturySchoolbook-Bold'" font-size="37.0001">К</tspan></text>
	</g>
	<path clip-path="url(#SVGID_144_)" fill="#515DA4" d="M119.345,460.73v89.214c-4.275,0.12-8.306,0.362-12.099,0.724
		c-0.844,0.058-1.67,0.12-2.483,0.179c-0.812,0.061-1.565,0.107-2.257,0.138c-0.693,0.027-1.309,0.044-1.851,0.044v-1.624
		c2.949-0.543,5.387-1.777,7.313-3.701c1.807-1.807,3.039-3.762,3.703-5.869c0.6-1.806,0.902-5.569,0.902-11.287v-46.869
		c0-5.537-0.213-9.027-0.632-10.473c-0.421-1.564-1.505-2.826-3.251-3.792c-1.805-0.963-4.484-1.503-8.035-1.626v-1.534
		C108.359,463.41,114.589,462.237,119.345,460.73 M125.485,549.944v-91.02c3.43-1.383,5.627-2.345,6.59-2.888v76.301
		c0,9.994,3.852,15.68,11.558,17.066v1.624c-5.598-0.481-10.054-0.784-13.364-0.904
		C127.019,550.004,125.423,549.944,125.485,549.944"/>
	<path clip-path="url(#SVGID_144_)" fill="#515DA4" d="M178.012,572.788c0.447,0.058-3.451,10.997-5.448,11.115
		c-2.038,0.119-4.014,0.273-5.928,0.455c-0.844,0.06-1.671,0.119-2.484,0.181c-0.813,0.059-1.565,0.104-2.256,0.136
		c-0.694,0.03-1.311,0.046-1.852,0.046v-1.626c2.948-0.541,5.386-1.774,7.314-3.703c1.805-1.806,3.039-3.759,3.702-5.868
		C171.542,572.075,176.196,572.546,178.012,572.788"/>
	<path clip-path="url(#SVGID_144_)" fill="#515DA4" d="M254.052,572.788c0.447,0.058-3.451,10.997-5.45,11.115
		c-2.037,0.119-4.012,0.273-5.927,0.455c-0.844,0.06-1.67,0.119-2.482,0.181c-0.814,0.059-1.566,0.104-2.258,0.136
		c-0.692,0.03-1.309,0.046-1.851,0.046v-1.626c2.948-0.541,5.386-1.774,7.313-3.703c1.806-1.806,3.039-3.759,3.703-5.868
		C247.583,572.075,252.235,572.546,254.052,572.788"/>
	<path clip-path="url(#SVGID_144_)" fill="#515DA4" d="M141.848,517.622l4.695-19.324h50.382l-15.258,63.387
		c-1.063,4.246-2.198,7.95-3.405,11.116c-1.804,4.727-13.631,11.121-10.861,7.391c1.182-1.549,2.323-3.654,3.423-6.312
		c1.425-3.438,2.781-7.804,4.071-13.102l13.724-56.429h-25.642c-6.14,0-10.505,1.203-13.092,3.611
		c-2.59,2.408-4.365,5.628-5.328,9.661H141.848z M210.803,492.431h-62.815l1.445-6.051h62.815L210.803,492.431z M187.084,563.848
		l15.775-65.398h6.681l-15.684,65.039c-1.325,5.537-2.77,9.419-4.334,11.647c-1.625,2.285-5.026,5.055-10.203,8.306
		C182.509,578.446,185.097,571.913,187.084,563.848"/>
	<path clip-path="url(#SVGID_144_)" fill="#515DA4" d="M306.953,491.979c-4.453,7.526-6.682,16.373-6.682,26.545
		c0,9.151,2.229,17.457,6.682,24.921c-9.331-5.897-13.994-14.295-13.994-25.193c0-4.452,0.903-8.967,2.709-13.541
		C297.474,500.138,301.234,495.892,306.953,491.979 M314.811,590.573l-0.813-3.068c18.358-8.247,28.922-22.66,31.69-43.246
		c-6.199,3.552-11.376,5.325-15.529,5.325c-7.404,0-13.183-2.619-17.336-7.854c-4.214-5.176-6.319-12.882-6.319-23.114
		c0-10.896,2.137-19.351,6.409-25.372c4.273-5.961,10.081-8.938,17.427-8.938c8.307,0,14.538,4.062,18.689,12.188
		c4.094,8.188,6.139,18.571,6.139,31.151c0,16.253-3.58,30.035-10.743,41.351C337.2,580.31,327.327,587.504,314.811,590.573
		 M347.04,538.206c0.545-6.618,0.815-11.193,0.815-13.723c0-10.656-1.505-19.141-4.516-25.461c-3.067-6.2-7.463-9.3-13.182-9.3
		c-4.935,0-8.819,2.499-11.647,7.494c-2.829,4.996-4.244,12.312-4.244,21.939c0,8.667,1.596,14.958,4.786,18.872
		c3.188,3.969,7.193,5.957,12.008,5.957C336.236,543.985,341.563,542.06,347.04,538.206 M352.822,566.468
		c5.655-11.317,8.487-24.59,8.487-39.818c0-14.568-3.283-26.937-9.844-37.11c11.617,7.948,17.426,20.557,17.426,37.833
		C368.892,543.985,363.533,557.016,352.822,566.468"/>
	<path clip-path="url(#SVGID_144_)" fill="#515DA4" d="M189.422,558.29c1.988-7.947,4.314-13.368,6.979-16.258
		c2.709-2.982,7.542-5.51,14.497-7.591l0.609,2.238c-5.509,2.349-9.302,4.923-11.381,7.723c-2.032,2.664-3.905,7.52-5.622,14.565
		L189.422,558.29z"/>
	<path clip-path="url(#SVGID_144_)" fill="#515DA4" d="M265.763,520.238c-1.988,7.946-4.313,13.364-6.977,16.258
		c-2.71,2.978-7.544,5.51-14.498,7.588l-0.609-2.239c5.508-2.347,9.303-4.923,11.38-7.719c2.033-2.669,3.907-7.523,5.624-14.567
		L265.763,520.238z"/>
	<path clip-path="url(#SVGID_144_)" fill="#515DA4" d="M187.47,530.112c-1.989,7.946-4.313,13.368-6.979,16.258
		c-2.709,2.981-7.542,5.511-14.496,7.59l-0.611-2.237c5.51-2.347,9.304-4.923,11.382-7.724c2.032-2.664,3.906-7.521,5.623-14.566
		L187.47,530.112z"/>
	<path clip-path="url(#SVGID_144_)" fill="#515DA4" d="M217.651,517.622l4.695-19.324h50.381l-15.26,63.387
		c-1.061,4.246-2.197,7.95-3.403,11.116c-1.803,4.727-13.63,11.121-10.861,7.391c1.182-1.549,2.322-3.654,3.424-6.312
		c1.423-3.438,2.78-7.804,4.07-13.102l13.724-56.429H238.78c-6.141,0-10.506,1.203-13.093,3.611
		c-2.589,2.408-4.365,5.628-5.328,9.661H217.651z M286.606,492.431H223.79l1.446-6.051h62.815L286.606,492.431z M262.886,563.848
		l15.773-65.398h6.683l-15.685,65.039c-1.325,5.537-2.767,9.419-4.333,11.647c-1.625,2.285-5.027,5.055-10.204,8.306
		C258.31,578.446,260.9,571.913,262.886,563.848"/>
</g>
<g>
	<defs>
		<path id="SVGID_145_" d="M490.221,350.827c-16.591,33.891-8.384,50.075-8.384,50.075s23.68-12.192,33.021-26.475
			c9.343-14.248,27.859-53.297,27.859-53.297s-1.438-0.168-3.875-0.168C529.111,320.962,503.474,323.675,490.221,350.827"/>
	</defs>
	<clipPath id="SVGID_146_">
		<use xlink:href="#SVGID_145_"  overflow="visible"/>
	</clipPath>
	<rect x="473.631" y="320.962" clip-path="url(#SVGID_146_)" fill="#515DA4" width="69.087" height="79.939"/>
</g>
<g>
	<defs>
		<rect id="SVGID_147_" x="16.669" y="14.51" width="578.611" height="827.38"/>
	</defs>
	<clipPath id="SVGID_148_">
		<use xlink:href="#SVGID_147_"  overflow="visible"/>
	</clipPath>
	<path clip-path="url(#SVGID_148_)" fill-rule="evenodd" clip-rule="evenodd" fill="#FFFFFF" d="M535.538,326.364
		c0,0-23.841,7.489-34.953,24.234c-11.135,16.741-15.306,44.516-15.306,44.516s10.289-27.076,20.466-40.864
		C515.939,340.535,535.538,326.364,535.538,326.364"/>
</g>
<g>
	<defs>
		<path id="SVGID_149_" d="M513.796,403.486c-38.205,1.918-40.903,59.428-40.903,59.428s32.856-1.459,42.792-14.597
			c17.534-23.179,39.846-21.247,39.846-21.247s-10.509-23.643-39.155-23.646C515.53,403.424,514.669,403.445,513.796,403.486"/>
	</defs>
	<clipPath id="SVGID_150_">
		<use xlink:href="#SVGID_149_"  overflow="visible"/>
	</clipPath>
	<rect x="472.894" y="403.425" clip-path="url(#SVGID_150_)" fill="#515DA4" width="82.638" height="59.489"/>
</g>
<g>
	<defs>
		<rect id="SVGID_151_" x="16.669" y="14.51" width="578.611" height="827.38"/>
	</defs>
	<clipPath id="SVGID_152_">
		<use xlink:href="#SVGID_151_"  overflow="visible"/>
	</clipPath>
	<path clip-path="url(#SVGID_152_)" fill-rule="evenodd" clip-rule="evenodd" fill="#FFFFFF" d="M549.263,422.745
		c0,0-25.32-19.294-45.581-7.361c-20.289,11.922-27.484,43.736-27.484,43.736s15.89-25.061,30.755-34.555
		C521.804,415.071,549.263,422.745,549.263,422.745"/>
	<path clip-path="url(#SVGID_152_)" fill-rule="evenodd" clip-rule="evenodd" fill="#515DA4" d="M461.911,329.718
		c-1.733,6.897,2.471,13.882,9.369,15.634c6.877,1.741,13.902-2.463,15.624-9.35c1.753-6.898-2.454-13.927-9.339-15.645
		C470.643,318.615,463.657,322.809,461.911,329.718"/>
	<path clip-path="url(#SVGID_152_)" fill-rule="evenodd" clip-rule="evenodd" fill="#FFFFFF" d="M480.4,325.022
		c0,0-5.787-3.057-10.375-0.979c-5.86,2.612-5.82,9.478-5.82,9.478s1.81-4.323,6.258-7.179
		C474.936,323.438,480.4,325.022,480.4,325.022"/>
</g>
<g>
	<defs>
		<path id="SVGID_153_" d="M451.232,253.249c-1.771,12.2,4.678,58.114,4.678,58.114s18.232-4.634,25.954-28.75
			c7.742-24.101-9.593-68.631-9.593-68.631S452.953,241.091,451.232,253.249"/>
	</defs>
	<clipPath id="SVGID_154_">
		<use xlink:href="#SVGID_153_"  overflow="visible"/>
	</clipPath>
	<rect x="449.462" y="213.982" clip-path="url(#SVGID_154_)" fill="#515DA4" width="40.146" height="97.381"/>
</g>
<g>
	<defs>
		<rect id="SVGID_155_" x="16.669" y="14.51" width="578.611" height="827.38"/>
	</defs>
	<clipPath id="SVGID_156_">
		<use xlink:href="#SVGID_155_"  overflow="visible"/>
	</clipPath>
	<path clip-path="url(#SVGID_156_)" fill-rule="evenodd" clip-rule="evenodd" fill="#FFFFFF" d="M470.412,225.469
		c0,0-8.72,13.122-13.049,29.673c-4.372,16.545,2.104,51.17,2.104,51.17s1.723-31.928,4.023-48.578
		C465.777,241.084,470.412,225.469,470.412,225.469"/>
</g>
<g>
	<defs>
		<path id="SVGID_157_" d="M408.061,288.663c14.53,21.536,42.024,34.034,42.024,34.034s0.478-25.459-5.896-42.87
			C437.823,262.434,401.496,247,401.496,247S393.529,267.143,408.061,288.663"/>
	</defs>
	<clipPath id="SVGID_158_">
		<use xlink:href="#SVGID_157_"  overflow="visible"/>
	</clipPath>
	<rect x="393.529" y="247" clip-path="url(#SVGID_158_)" fill="#515DA4" width="57.032" height="75.697"/>
</g>
<g>
	<defs>
		<rect id="SVGID_159_" width="595.28" height="841.89"/>
	</defs>
	<clipPath id="SVGID_160_">
		<use xlink:href="#SVGID_159_"  overflow="visible"/>
	</clipPath>
	<path clip-path="url(#SVGID_160_)" fill-rule="evenodd" clip-rule="evenodd" fill="#FFFFFF" d="M404.341,254.198
		c0,0,7.084,13.83,16.615,28.68c13.525,21.042,22.524,28.289,22.524,28.289s-17.367-11.103-26.198-24.634
		C408.488,273.021,404.341,254.198,404.341,254.198"/>
</g>
<g>
	<defs>
		<path id="SVGID_161_" d="M398.55,319.206c0,0,13.934,13.354,24.929,38.281c22.774,24.742,48.356,31.945,48.356,31.945
			s3.01-40.365-39.555-60.808c-17.776-8.536-26.3-10.305-30.31-10.305C399.13,318.319,398.55,319.206,398.55,319.206"/>
	</defs>
	<clipPath id="SVGID_162_">
		<use xlink:href="#SVGID_161_"  overflow="visible"/>
	</clipPath>
	<rect x="398.55" y="318.319" clip-path="url(#SVGID_162_)" fill="#515DA4" width="76.296" height="71.113"/>
</g>
<g>
	<defs>
		<rect id="SVGID_163_" width="595.28" height="841.89"/>
	</defs>
	<clipPath id="SVGID_164_">
		<use xlink:href="#SVGID_163_"  overflow="visible"/>
	</clipPath>
	<path clip-path="url(#SVGID_164_)" fill-rule="evenodd" clip-rule="evenodd" fill="#FFFFFF" d="M408.855,323.501
		c0,0,28.66,14.504,37.321,22.242c8.625,7.737,22.505,38.237,22.505,38.237s-16.143-25.42-24.767-34.1
		C435.307,341.239,408.855,323.501,408.855,323.501"/>
</g>
<g>
	<defs>
		<path id="SVGID_165_" d="M399.5,503.027c-7.963,3.647-11.46,13.021-7.816,21c3.638,7.935,13.014,11.432,20.996,7.778
			c7.943-3.663,11.439-13.03,7.79-20.985c-2.674-5.805-8.415-9.238-14.401-9.239C403.866,501.581,401.633,502.045,399.5,503.027"/>
	</defs>
	<clipPath id="SVGID_166_">
		<use xlink:href="#SVGID_165_"  overflow="visible"/>
	</clipPath>
	<rect x="388.04" y="501.581" clip-path="url(#SVGID_166_)" fill="#515DA4" width="36.079" height="33.878"/>
</g>
<g>
	<defs>
		<rect id="SVGID_167_" x="25.368" y="35.638" width="569.911" height="806.252"/>
	</defs>
	<clipPath id="SVGID_168_">
		<use xlink:href="#SVGID_167_"  overflow="visible"/>
	</clipPath>
	<path clip-path="url(#SVGID_168_)" fill-rule="evenodd" clip-rule="evenodd" fill="#FFFFFF" d="M414.031,507.823
		c0,0-8.376-3.403-14.393,0.097c-7.68,4.452-6.631,13.863-6.631,13.863s1.898-6.192,7.588-10.759
		C406.3,506.426,414.031,507.823,414.031,507.823"/>
</g>
<g>
	<defs>
		<path id="SVGID_169_" d="M411.063,473.513c2.92,12.441,20.959,36.081,20.959,36.081s26.724-13.539,21.369-39.142
			c-5.378-25.56-45.345-52.591-45.345-52.591S405.94,451.982,411.063,473.513"/>
	</defs>
	<clipPath id="SVGID_170_">
		<use xlink:href="#SVGID_169_"  overflow="visible"/>
	</clipPath>
	<rect x="405.939" y="417.861" clip-path="url(#SVGID_170_)" fill="#515DA4" width="52.806" height="91.732"/>
</g>
<g>
	<defs>
		<rect id="SVGID_171_" width="595.28" height="841.89"/>
	</defs>
	<clipPath id="SVGID_172_">
		<use xlink:href="#SVGID_171_"  overflow="visible"/>
	</clipPath>
	<path clip-path="url(#SVGID_172_)" fill-rule="evenodd" clip-rule="evenodd" fill="#FFFFFF" d="M418.315,434.614
		c0,0,14.844,11.206,23.43,33.778c5.521,14.459-9.295,33.183-9.295,33.183s5.199-18.271,3.847-32.171
		C434.926,455.528,418.315,434.614,418.315,434.614"/>
</g>
<g>
	<defs>
		<path id="SVGID_173_" d="M441.868,527.541c-7.719,0-13.325,0.407-13.325,0.407s1.482,35.367,44.789,41.347
			c31.759,4.369,62.578-30.902,62.578-30.902s-29.565,9.186-56.15-4.982c-9.194-4.898-25.994-5.869-37.843-5.869
			C441.9,527.541,441.884,527.541,441.868,527.541"/>
	</defs>
	<clipPath id="SVGID_174_">
		<use xlink:href="#SVGID_173_"  overflow="visible"/>
	</clipPath>
	<rect x="428.543" y="527.538" clip-path="url(#SVGID_174_)" fill="#515DA4" width="107.367" height="46.126"/>
</g>
<g>
	<defs>
		<rect id="SVGID_175_" width="595.28" height="841.89"/>
	</defs>
	<clipPath id="SVGID_176_">
		<use xlink:href="#SVGID_175_"  overflow="visible"/>
	</clipPath>
	<path clip-path="url(#SVGID_176_)" fill-rule="evenodd" clip-rule="evenodd" fill="#FFFFFF" d="M515.925,550.555
		c0,0-22.001,16.35-44.614,6.601c-22.632-9.718-35.605-24.555-35.605-24.555s18.451,8.403,35.09,16.337
		C487.484,556.847,515.925,550.555,515.925,550.555"/>
</g>
<g>
	<defs>
		<path id="SVGID_177_" d="M396.886,565.167c0,0,18.327,27.881,37.17,33.364c13.646,4.007,40.837,2.077,40.837,2.077
			s-5.674-9.971-28.433-31.524c-8.63-8.188-17.84-10.733-25.955-10.733C407.227,558.355,396.886,565.167,396.886,565.167"/>
	</defs>
	<clipPath id="SVGID_178_">
		<use xlink:href="#SVGID_177_"  overflow="visible"/>
	</clipPath>
	<rect x="396.886" y="558.352" clip-path="url(#SVGID_178_)" fill="#515DA4" width="78.008" height="44.188"/>
</g>
<g>
	<defs>
		<rect id="SVGID_179_" width="595.28" height="841.89"/>
	</defs>
	<clipPath id="SVGID_180_">
		<use xlink:href="#SVGID_179_"  overflow="visible"/>
	</clipPath>
	<path clip-path="url(#SVGID_180_)" fill-rule="evenodd" clip-rule="evenodd" fill="#FFFFFF" d="M405.518,565.79
		c0,0,18.058-4.105,31.567,5.681c13.49,9.788,27.326,23.85,27.326,23.85s-18.113-9.194-30.08-16.959
		C422.464,570.643,405.518,565.79,405.518,565.79"/>
</g>
<g>
	<defs>
		<path id="SVGID_181_" d="M440.417,424.592c3.745,8.493,21.276,29.896,21.276,29.896s18.517-20.886-2.82-49.261
			c-10.354-13.776-36.071-17.143-36.071-17.143S431.824,405.121,440.417,424.592"/>
	</defs>
	<clipPath id="SVGID_182_">
		<use xlink:href="#SVGID_181_"  overflow="visible"/>
	</clipPath>
	
		<rect x="419.514" y="385.287" transform="matrix(-0.9946 0.1037 -0.1037 -0.9946 944.2687 793.4763)" clip-path="url(#SVGID_182_)" fill="#515DA4" width="63.984" height="72"/>
</g>
<g>
	<defs>
		<rect id="SVGID_183_" width="595.28" height="841.89"/>
	</defs>
	<clipPath id="SVGID_184_">
		<use xlink:href="#SVGID_183_"  overflow="visible"/>
	</clipPath>
	<path clip-path="url(#SVGID_184_)" fill-rule="evenodd" clip-rule="evenodd" fill="#FFFFFF" d="M436.231,399.977
		c0,0,12.277-0.205,19.546,10.869c14.267,21.803,2.912,32.992,2.912,32.992s4.85-13.056-6.814-29.137
		C446.063,406.675,436.231,399.977,436.231,399.977"/>
</g>
<g>
	<defs>
		<path id="SVGID_185_" d="M501.121,471.32c-32.801,8.681-57.803,46.252-57.803,46.252s52.775,4.972,70.748-3.313
			c34.854-16.029,46.187-49.662,46.187-49.662s-2.549-0.189-7.052-0.189C543.246,464.408,523.744,465.337,501.121,471.32"/>
	</defs>
	<clipPath id="SVGID_186_">
		<use xlink:href="#SVGID_185_"  overflow="visible"/>
	</clipPath>
	<rect x="443.318" y="464.407" clip-path="url(#SVGID_186_)" fill="#515DA4" width="116.935" height="58.137"/>
</g>
<g>
	<defs>
		<rect id="SVGID_187_" width="595.28" height="841.89"/>
	</defs>
	<clipPath id="SVGID_188_">
		<use xlink:href="#SVGID_187_"  overflow="visible"/>
	</clipPath>
	<path clip-path="url(#SVGID_188_)" fill-rule="evenodd" clip-rule="evenodd" fill="#FFFFFF" d="M542.613,474.976
		c0,0-24.9,9.492-42.838,11.766c-17.88,2.308-41.411,22.616-41.411,22.616s30.271-15.11,45.636-16.283
		C519.3,491.898,542.613,474.976,542.613,474.976"/>
</g>
<g>
	<defs>
		<path id="SVGID_189_" d="M372.549,595.713c6.583,12.878,10.951,29.942,10.951,29.942s17.602-16.397,16.637-34.488
			c-1.416-26.14-30.244-26.159-30.33-26.159C369.807,565.008,368.125,587.051,372.549,595.713"/>
	</defs>
	<clipPath id="SVGID_190_">
		<use xlink:href="#SVGID_189_"  overflow="visible"/>
	</clipPath>
	<rect x="368.125" y="565.008" clip-path="url(#SVGID_190_)" fill="#515DA4" width="32.978" height="60.647"/>
</g>
<g>
	<defs>
		<rect id="SVGID_191_" width="595.28" height="841.89"/>
	</defs>
	<clipPath id="SVGID_192_">
		<use xlink:href="#SVGID_191_"  overflow="visible"/>
	</clipPath>
	<path clip-path="url(#SVGID_192_)" fill-rule="evenodd" clip-rule="evenodd" fill="#FFFFFF" d="M387.059,620.293
		c0,0,10.964-16.714,5.971-29.69c-5.005-12.993-19.857-21.229-19.857-21.229s12.655,13.424,16.768,23.02
		C394.049,601.989,387.059,620.293,387.059,620.293"/>
</g>
<g>
	<defs>
		<path id="SVGID_193_" d="M383.933,537.936c-6.206,2.839-8.927,10.173-6.076,16.398c2.826,6.205,10.155,8.938,16.366,6.088
			c6.232-2.857,8.974-10.182,6.103-16.392c-2.078-4.544-6.55-7.222-11.241-7.222C387.36,536.809,385.608,537.172,383.933,537.936"/>
	</defs>
	<clipPath id="SVGID_194_">
		<use xlink:href="#SVGID_193_"  overflow="visible"/>
	</clipPath>
	<rect x="375.006" y="536.809" clip-path="url(#SVGID_194_)" fill="#515DA4" width="28.19" height="26.465"/>
</g>
<g>
	<defs>
		<rect id="SVGID_195_" width="595.28" height="841.89"/>
	</defs>
	<clipPath id="SVGID_196_">
		<use xlink:href="#SVGID_195_"  overflow="visible"/>
	</clipPath>
	<path clip-path="url(#SVGID_196_)" fill-rule="evenodd" clip-rule="evenodd" fill="#FFFFFF" d="M395.312,541.668
		c0,0-6.573-2.644-11.251,0.077c-5.993,3.479-5.155,10.826-5.155,10.826s1.45-4.818,5.907-8.381
		C389.26,540.597,395.312,541.668,395.312,541.668"/>
</g>
<g>
	<defs>
		<path id="SVGID_197_" d="M350.91,460.861c0,0,12.615,9.361,25.719,20.668c5.715,4.931,26.313,14.532,26.313,14.532
			s7.186-21.81-18.661-35.205c-4.18-2.166-9.28-2.889-14.221-2.889C360.169,457.967,350.91,460.861,350.91,460.861"/>
	</defs>
	<clipPath id="SVGID_198_">
		<use xlink:href="#SVGID_197_"  overflow="visible"/>
	</clipPath>
	<polygon clip-path="url(#SVGID_198_)" fill="#515DA4" points="345.903,463.776 392.421,436.675 422.129,486.678 375.613,513.779 	
		"/>
</g>
</svg>
